<?xml version="1.0" standalone="no"?>
<!DOCTYPE svg PUBLIC "-//W3C//DTD SVG 1.1//EN" "http://www.w3.org/Graphics/SVG/1.1/DTD/svg11.dtd" >
<!--
2013-9-30: Created.
-->
<svg>
<metadata>
Created by iconfont
</metadata>
<defs>

<font id="iconfont" horiz-adv-x="1024" >
  <font-face
    font-family="iconfont"
    font-weight="500"
    font-stretch="normal"
    units-per-em="1024"
    ascent="896"
    descent="-128"
  />
    <missing-glyph />
    
    <glyph glyph-name="x" unicode="x" horiz-adv-x="1001"
d="M281 543q-27 -1 -53 -1h-83q-18 0 -36.5 -6t-32.5 -18.5t-23 -32t-9 -45.5v-76h912v41q0 16 -0.5 30t-0.5 18q0 13 -5 29t-17 29.5t-31.5 22.5t-49.5 9h-133v-97h-438v97zM955 310v-52q0 -23 0.5 -52t0.5 -58t-10.5 -47.5t-26 -30t-33 -16t-31.5 -4.5q-14 -1 -29.5 -0.5
t-29.5 0.5h-32l-45 128h-439l-44 -128h-29h-34q-20 0 -45 1q-25 0 -41 9.5t-25.5 23t-13.5 29.5t-4 30v167h911zM163 247q-12 0 -21 -8.5t-9 -21.5t9 -21.5t21 -8.5q13 0 22 8.5t9 21.5t-9 21.5t-22 8.5zM316 123q-8 -26 -14 -48q-5 -19 -10.5 -37t-7.5 -25t-3 -15t1 -14.5
t9.5 -10.5t21.5 -4h37h67h81h80h64h36q23 0 34 12t2 38q-5 13 -9.5 30.5t-9.5 34.5q-5 19 -11 39h-368zM336 498v228q0 11 2.5 23t10 21.5t20.5 15.5t34 6h188q31 0 51.5 -14.5t20.5 -52.5v-227h-327z" />
    

    
    <glyph glyph-name="gouwuche" unicode="&#983368;" d="M347.136 112.64q19.456 0 36.864-7.168t30.72-19.968 20.48-30.208 7.168-36.864-7.168-36.864-20.48-30.208-30.72-20.48-36.864-7.68q-20.48 0-37.376 7.68t-30.208 20.48-20.48 30.208-7.168 36.864 7.168 36.864 20.48 30.208 30.208 19.968 37.376 7.168zM773.12 110.592q19.456 0 37.376-7.168t30.72-19.968 20.48-30.208 7.68-36.864-7.68-36.864-20.48-30.208-30.72-20.48-37.376-7.68-36.864 7.68-30.208 20.48-20.48 30.208-7.68 36.864 7.68 36.864 20.48 30.208 30.208 19.968 36.864 7.168zM945.152 692.224q28.672 0 44.544-7.68t22.528-18.944 6.144-24.064-3.584-22.016-12.8-37.888-22.016-62.976-24.064-68.096-17.92-53.248q-13.312-40.96-33.792-56.832t-50.176-15.872l-34.816 0-66.56 0-87.04 0-95.232 0-253.952 0 15.36-92.16 516.096 0q49.152 0 49.152-41.984 0-20.48-9.728-35.328t-38.4-14.848l-49.152 0-95.232 0-117.76 0-119.808 0-98.304 0-56.32 0q-20.48 0-34.304 9.216t-23.04 24.064-14.848 32.256-8.704 32.768q-1.024 6.144-5.632 29.696t-11.264 58.88-14.848 78.848-16.384 87.552q-19.456 103.424-44.032 230.4l-76.8 0q-15.36 0-25.6 7.68t-16.896 18.432-9.216 23.04-2.56 22.528q0 20.48 13.824 33.792t37.376 13.312l22.528 0 20.48 0 25.6 0 34.816 0q20.48 0 32.768-6.144t19.456-15.36 10.24-19.456 5.12-17.408q2.048-8.192 4.096-23.04t4.096-30.208q3.072-18.432 6.144-38.912l700.416 0z"  horiz-adv-x="1024" />

    
    <glyph glyph-name="gouwuche1" unicode="&#59081;" d="M753.429-27.004c-43.1 0-78.042-33.971-78.042-77.377 0-43.431 34.942-78.61 78.042-78.61 43.097 0 78.041 35.18 78.041 78.61C831.47-60.974 796.526-27.004 753.429-27.004zM328.326-27.004c-43.123 0-75.671-32.76-75.671-76.168 0-43.429 32.549-78.61 75.671-78.61 43.099 0 78.041 35.182 78.041 78.61C406.367-59.763 371.425-27.004 328.326-27.004zM1022.804 282.058l-0.829 268.522c0 0-3.889 80.815-73.537 80.815L210.931 630.4l-16.262 39.637c0 0-16.453 117.963-95.727 117.963 0 0-95.75 0-95.75-116.185l80.294 0.118c0 0 98.333-565.8 98.333-582.846 0-21.383 17.165-77.377 38.405-77.377l725.369 0c21.218 0 38.404 36.649 38.404 58.009 0 21.384-17.187 58.058-38.404 58.058L273.067 127.777l-19.084 77.165 693.651 3.058C947.634 207.999 1022.804 207.098 1022.804 282.058zM330.697 321.245c0-21.36-17.187-38.689-38.405-38.689l-1.208 0c-21.217 0-38.428 17.329-38.428 38.689l0 38.689c0 21.383 17.211 38.712 38.428 38.712l1.208 0c21.218 0 38.405-17.33 38.405-38.712L330.697 321.245zM330.697 476.024c0-21.36-17.187-38.688-38.405-38.688L253.84 437.336c-21.193 0-38.404 17.329-38.404 38.688l0 38.712c0 21.36 17.211 38.689 38.404 38.689l38.452 0c21.218 0 38.405-17.329 38.405-38.689L330.697 476.024zM484.432 321.245c0-21.36-17.211-38.689-38.428-38.689l-38.452 0c-21.193 0-38.404 17.329-38.404 38.689l0 38.689c0 21.383 17.211 38.712 38.404 38.712l38.452 0c21.217 0 38.428-17.33 38.428-38.712L484.432 321.245zM484.432 476.024c0-21.36-17.211-38.688-38.428-38.688l-38.452 0c-21.193 0-38.404 17.329-38.404 38.688l0 38.712c0 21.36 17.211 38.689 38.404 38.689l38.452 0c21.217 0 38.428-17.329 38.428-38.689L484.432 476.024zM638.145 321.245c0-21.36-17.212-38.689-38.427-38.689l-38.43 0c-21.217 0-38.428 17.329-38.428 38.689l0 38.689c0 21.383 17.211 38.712 38.428 38.712l38.43 0c21.215 0 38.427-17.33 38.427-38.712L638.145 321.245zM638.145 476.024c0-21.36-17.212-38.688-38.427-38.688l-38.43 0c-21.217 0-38.428 17.329-38.428 38.688l0 38.712c0 21.36 17.211 38.689 38.428 38.689l38.43 0c21.215 0 38.427-17.329 38.427-38.689L638.145 476.024zM791.858 321.245c0-21.36-17.212-38.689-38.429-38.689l-38.428 0c-21.217 0-38.429 17.329-38.429 38.689l0 38.689c0 21.383 17.212 38.712 38.429 38.712l38.428 0c21.217 0 38.429-17.33 38.429-38.712L791.858 321.245zM791.858 476.024c0-21.36-17.212-38.688-38.429-38.688l-38.428 0c-21.217 0-38.429 17.329-38.429 38.688l0 38.712c0 21.36 17.212 38.689 38.429 38.689l38.428 0c21.217 0 38.429-17.329 38.429-38.689L791.858 476.024zM945.571 321.245c0-21.36-17.211-38.689-38.43-38.689l-38.428 0c-21.218 0-38.429 17.329-38.429 38.689l0 38.689c0 21.383 17.211 38.712 38.429 38.712l38.428 0c21.219 0 38.43-17.33 38.43-38.712L945.571 321.245zM945.571 476.024c0-21.36-17.211-38.688-38.43-38.688l-38.428 0c-21.218 0-38.429 17.329-38.429 38.688l0 38.712c0 21.36 17.211 38.689 38.429 38.689l38.428 0c21.219 0 38.43-17.329 38.43-38.689L945.571 476.024z"  horiz-adv-x="1029" />

    
    <glyph glyph-name="dingdan" unicode="&#58923;" d="M365.714286 763.238096 658.285714 763.238096 658.285714 812 365.714286 812 365.714286 763.238096ZM390.095239 665.714286 633.904761 665.714286 633.904761 714.476189 390.095239 714.476189 390.095239 665.714286ZM487.619046 763.238096 487.619046 714.476189 536.380954 714.476189 536.380954 763.238096 487.619046 763.238096ZM755.809525 690.095239 804.571429 690.095239C859.372866 690.095239 902.095239 647.372866 902.095239 592.571429L902.095239-16.952382C902.095239-83.944294 847.182391-138.857143 780.190475-138.857143L243.809525-138.857143C176.817609-138.857143 121.904761-83.944294 121.904761-16.952382L121.904761 592.571429C121.904761 647.372866 164.627134 690.095239 219.428571 690.095239L268.190475 690.095239 268.190475 738.857143 219.428571 738.857143C137.696677 738.857143 73.142857 674.303323 73.142857 592.571429L73.142857-16.952382C73.142857-110.874752 149.887152-187.619046 243.809525-187.619046L780.190475-187.619046C874.112848-187.619046 950.857143-110.874752 950.857143-16.952382L950.857143 592.571429C950.857143 674.303323 886.303323 738.857143 804.571429 738.857143L755.809525 738.857143 755.809525 690.095239Z"  horiz-adv-x="1024" />

    
    <glyph glyph-name="search" unicode="&#58883;" d="M1016.502713-172.362972l-324.291529 324.291529C754.503751 221.880047 792.287767 314.04241 792.287767 415.012534c0 218.598404-177.112575 395.774803-395.647154 395.774803C178.106033 810.723513 0.865809 633.610938 0.865809 415.012534c0-218.470755 177.176399-395.710979 395.774803-395.710979 100.714827 0 192.621893 37.656367 262.445733 99.629813l324.355354-324.355354c8.935409-8.935409 23.487361-8.743936 32.678068 0.44677S1025.501947-181.298381 1016.502713-172.362972L1016.502713-172.362972zM47.649059 415.012534c0 192.430419 156.561134 348.991553 348.991553 348.991553 192.430419 0 348.927729-156.561134 348.927729-348.991553s-156.49731-348.927729-348.927729-348.927729C204.210193 66.020981 47.649059 222.582115 47.649059 415.012534L47.649059 415.012534zM47.649059 415.012534"  horiz-adv-x="1024" />

    
    <glyph glyph-name="anniu2" unicode="&#58940;" d="M0 300c0-282.763636 229.236364-512 512-512l1024 0c282.763636 0 512 229.236364 512 512S1818.763636 812 1536 812L512 812C229.236364 812 0 582.763636 0 300zM1070.545455 300c0 257.163636 208.290909 465.454545 465.454545 465.454545s465.454545-208.290909 465.454545-465.454545-208.290909-465.454545-465.454545-465.454545S1070.545455 42.836364 1070.545455 300z"  horiz-adv-x="2048" />

    
    <glyph glyph-name="anniu1" unicode="&#58941;" d="M1536 812 512 812C229.236364 812 0 582.763636 0 300s229.236364-512 512-512l1024 0c282.763636 0 512 229.236364 512 512S1818.763636 812 1536 812zM512-165.454545C254.836364-165.454545 46.545455 42.836364 46.545455 300S254.836364 765.454545 512 765.454545s465.454545-208.290909 465.454545-465.454545S769.163636-165.454545 512-165.454545z"  horiz-adv-x="2048" />

    
    <glyph glyph-name="daishouhuo" unicode="&#59015;" d="M834.470957 43.176348c-53.849043 0-98.749217-38.244174-109.056-89.043478l-404.257391 0c-10.306783 50.799304-55.206957 89.043478-109.056 89.043478-61.484522 0-111.304348-49.842087-111.304348-111.304348 0-61.484522 49.819826-111.304348 111.304348-111.304348 53.849043 0 98.749217 38.244174 109.056 89.043478l404.257391 0c10.306783-50.799304 55.206957-89.043478 109.056-89.043478 61.484522 0 111.304348 49.819826 111.304348 111.304348C945.775304-6.665739 895.955478 43.176348 834.470957 43.176348zM212.101565-134.910609c-36.886261 0-66.782609 29.896348-66.782609 66.782609 0 36.864 29.896348 66.782609 66.782609 66.782609 36.864 0 66.782609-29.918609 66.782609-66.782609C278.884174-105.014261 248.987826-134.910609 212.101565-134.910609zM834.470957-134.910609c-36.886261 0-66.782609 29.896348-66.782609 66.782609 0 36.864 29.896348 66.782609 66.782609 66.782609s66.782609-29.918609 66.782609-66.782609C901.253565-105.014261 871.357217-134.910609 834.470957-134.910609zM1030.032696 323.485217 758.427826 595.023304c-3.695304 2.738087-8.036174 4.674783-13.000348 4.674783l-155.826087 0 0 133.565217c0 12.288-9.97287 22.26087-22.26087 22.26087l-467.478261 0c-49.174261 0-89.043478-39.869217-89.043478-89.043478l0-734.608696c0-12.310261 9.97287-22.26087 22.26087-22.26087s22.26087 9.950609 22.26087 22.26087l0 734.608696c0 24.576 19.945739 44.521739 44.521739 44.521739l445.217391 0 0-133.565217c0-12.310261 9.97287-22.26087 22.26087-22.26087l169.026783 0 253.929739-253.952 0-369.352348c0-12.310261 9.97287-22.26087 22.26087-22.26087s22.26087 9.950609 22.26087 22.26087l0 378.434783C1034.818783 315.337739 1032.837565 319.745391 1030.032696 323.485217zM923.514435 243.524174l-333.913043 0 0 244.869565c0 12.288-9.97287 22.26087-22.26087 22.26087s-22.26087-9.97287-22.26087-22.26087l0-267.130435c0-12.310261 9.97287-22.26087 22.26087-22.26087l356.173913 0c12.288 0 22.26087 9.950609 22.26087 22.26087C945.775304 233.551304 935.824696 243.524174 923.514435 243.524174z"  horiz-adv-x="1035" />

    
    <glyph glyph-name="p-delet" unicode="&#58989;" d="M232.547-103.193c-36.488 0-66.174 28.914-66.174 64.453l-0 742.569h-77.564c-17.176 0-31.148 13.973-31.148 31.148 0 17.172 13.973 31.142 31.148 31.142h197.98v47.904c0 32.057 29.065 57.169 66.168 57.169h323.974c37.104 0 66.168-25.112 66.168-57.169v-47.904h192.097c17.172 0 31.142-13.97 31.142-31.142 0-17.176-13.97-31.148-31.142-31.148h-71.718v-742.568c0-35.539-29.684-64.453-66.174-64.453l-564.757-0zM228.669 0.989c-0.064-1.701-0.455-19.996 11.402-32.423 7.012-7.349 16.746-11.076 28.934-11.076 37.887 0 486.938 1.486 491.469 1.5 14.347 0.323 41.34 8.817 41.34 38.658 0 16.714-0.134 167.104-0.274 326.323-0.141 159.328-0.288 324.080-0.288 342.39 0 27.651-22.47 37.503-43.498 37.503-0.905 0-1.52-0.024-1.773-0.037l-488.797-0c-0.884 0.149-3.023 0.451-5.9 0.451-9.806 0-32.614-3.695-32.614-37.918l0-665.372zM349.043 766.12h331.73v42.782h-331.73v-42.782zM679.839 35.431c-17.175 0-31.147 13.972-31.147 31.147v531.206c0 17.175 13.972 31.148 31.147 31.148 17.172 0 31.142-13.973 31.142-31.148v-531.206c0-17.174-13.97-31.147-31.142-31.147zM514.91 35.431c-17.175 0-31.148 13.972-31.148 31.147l-0 531.206c0 17.175 13.973 31.148 31.148 31.148 17.172 0 31.142-13.973 31.142-31.148v-531.206c-0-17.174-13.97-31.147-31.142-31.147zM350.013 35.431c-17.172 0-31.142 13.972-31.142 31.147l0 531.206c0 17.175 13.97 31.148 31.142 31.148 17.176 0 31.148-13.973 31.148-31.148v-531.206c0.001-17.174-13.972-31.147-31.148-31.147z"  horiz-adv-x="1024" />

    
    <glyph glyph-name="pinpai" unicode="&#58964;" d="M734.596216 353.444077c-17.681708-43.802622-61.003376-74.827219-111.514793-74.827219-50.51551 0-93.842295 31.024597-111.529119 74.827219-17.877159-43.802622-61.665455-74.827219-112.716154-74.827219-50.514487 0-93.842295 31.024597-111.529119 74.827219-17.878183-43.802622-61.665455-74.827219-112.716154-74.827219-12.033058 0-23.63428 1.805112-34.603099 5.075599l0-248.065795c0-23.066345 25.629727-51.256384 48.696072-51.256384l644.545782 0c23.061228 0 48.691979 28.190039 48.691979 51.256384L881.921609 283.598312c-10.974959-3.201925-22.571065-4.981455-34.594913-4.981455C796.26781 278.615834 752.479515 309.641455 734.596216 353.444077zM512.004605 18.676617C399.996578 86.428697 407.46569 156.908912 412.931169 208.722998c0.811482 7.535627 1.560542 14.491039 1.906419 21.035082 15.495926 2.718925 34.96228 7.378038 40.052205 8.623401 14.872732 3.611248 40.21184 24.937972 57.081043 31.480992 16.937764-6.54302 42.24208-27.868721 57.113789-31.480992 5.088902-1.208525 24.585955-5.878894 40.052205-8.623401 0.376577-6.544043 1.095961-13.498432 1.907443-21.035082C616.547613 156.908912 624.041284 86.423581 512.004605 18.676617zM516.027222 112.409418c-1.691525-4.881171-2.883677-10.197246-3.560082-15.992229l-0.50756 0c-0.405229 4.408403-1.732457 9.884115-3.969405 16.416901l-27.469632 81.538061-21.772886 0 42.322921-114.154923 20.141736 0 44.568055 114.154923-20.964474 0L516.027222 112.409418zM879.998817 671.257399l-740.64856 0L62.464145 470.073354c0-60.22464 49.975205-110.196775 111.485117-110.196775 61.504796 0 112.76118 48.693002 112.76118 110.196775 0-60.22464 49.975205-110.196775 111.485117-110.196775s112.760157 48.693002 112.760157 110.196775c0-60.22464 49.976228-110.196775 111.484094-110.196775 61.508889 0 111.480001 48.693002 111.480001 110.196775 0-60.22464 49.976228-110.196775 112.76425-110.196775 61.508889 0 112.765273 48.693002 112.765273 110.196775L879.998817 671.257399zM190.601524 705.400011l640.701221 0c21.791305 0 38.44766 16.657378 38.44766 38.442544 0 21.787212-16.656355 38.443567-38.44766 38.443567L190.601524 782.286122c-21.781072 0-38.438451-16.656355-38.438451-38.443567C152.163073 722.058412 168.820452 705.400011 190.601524 705.400011z"  horiz-adv-x="1024" />

    
    <glyph glyph-name="mjiantou" unicode="&#58910;" d="M683.9808 384 267.6224 800.3328 303.8208 836.5568 720.4608 419.9168 756.3776 384 303.8208-68.5568 267.6224-32.3328Z"  horiz-adv-x="1024" />

    
    <glyph glyph-name="mjiantou-copy" unicode="&#58911;" d="M340.019 384l416.358-416.332-36.198-36.224-452.557 452.557 452.557 452.557 36.198-36.224z"  horiz-adv-x="1024" />

    
    <glyph glyph-name="daifahuo" unicode="&#58886;" d="M933.47424 272.019603 426.986791 272.019603c-15.537881 0-28.134781 12.549827-28.134781 27.995611L398.85201 663.958156c0 15.489786 12.596899 27.993564 28.134781 27.993564L933.47424 691.951721c15.537881 0 28.135804-12.504802 28.135804-27.993564l0-363.942943C961.610044 284.56943 949.012122 272.019603 933.47424 272.019603L933.47424 272.019603zM891.246487 635.960499 469.212498 635.960499c-7.792477 0-14.090926-6.247284-14.090926-13.995759 0-7.700379 6.29845-13.997805 14.090926-13.997805l422.033989 0c7.792477 0 14.092973 6.297426 14.092973 13.997805C905.33946 629.713214 899.03794 635.960499 891.246487 635.960499L891.246487 635.960499zM891.246487 579.9703 469.212498 579.9703c-7.792477 0-14.090926-6.252401-14.090926-13.997805 0-7.745405 6.29845-13.997805 14.090926-13.997805l422.033989 0c7.792477 0 14.092973 6.252401 14.092973 13.997805C905.33946 573.717899 899.03794 579.9703 891.246487 579.9703L891.246487 579.9703zM891.246487 523.978055 469.212498 523.978055c-7.792477 0-14.090926-6.252401-14.090926-13.994736 0-7.700379 6.29845-13.997805 14.090926-13.997805l422.033989 0c7.792477 0 14.092973 6.297426 14.092973 13.997805C905.33946 517.725654 899.03794 523.978055 891.246487 523.978055L891.246487 523.978055zM891.246487 467.986833 469.212498 467.986833c-7.792477 0-14.090926-6.250354-14.090926-13.997805 0-7.696286 6.29845-13.997805 14.090926-13.997805l422.033989 0c7.792477 0 14.092973 6.30152 14.092973 13.997805C905.33946 461.736479 899.03794 467.986833 891.246487 467.986833L891.246487 467.986833zM891.246487 411.996634 469.212498 411.996634c-7.792477 0-14.090926-6.253424-14.090926-14.000875 0-7.696286 6.29845-13.992689 14.090926-13.992689l422.033989 0c7.792477 0 14.092973 6.297426 14.092973 13.992689C905.33946 405.742187 899.03794 411.996634 891.246487 411.996634L891.246487 411.996634zM891.246487 356.004389 469.212498 356.004389c-7.792477 0-14.090926-6.250354-14.090926-13.997805 0-7.696286 6.29845-13.995759 14.090926-13.995759l422.033989 0c7.792477 0 14.092973 6.300496 14.092973 13.995759C905.33946 349.753011 899.03794 356.004389 891.246487 356.004389L891.246487 356.004389zM734.751247 187.192635 398.850987 187.192635c0 0-28.137851 20.10899-28.137851 56.82931l337.674673 0C708.388832 244.022968 734.751247 209.91515 734.751247 187.192635L734.751247 187.192635zM314.443575 272.019603l-86.179778 0.884137c0 0-84.406388-6.112208-84.406388-81.375356 0 0 1.166569-31.490202-39.847543-31.490202 0 0-41.61991-2.335185-41.61991 26.266224L62.389956 361.280556c0 0 4.105504 27.990494 21.696138 52.488445l61.543681 138.205689c0 0 14.045901 55.992245 56.271608 55.992245 15.817244-1.726318 110.768803 0 110.768803 0s58.043974 3.500731 58.043974-52.493561l-1.725294-225.692229C368.988866 329.781144 367.214453 272.019603 314.443575 272.019603L314.443575 272.019603zM272.262894 328.009801l28.136827 0c7.744381 0 14.043854 6.300496 14.043854 13.995759 0 7.746428-6.299473 13.997805-14.043854 13.997805l-28.136827 0c-7.792477 0-14.089903-6.250354-14.089903-13.997805C258.171967 334.310298 264.470417 328.009801 272.262894 328.009801L272.262894 328.009801zM287.194978 551.974689l-46.612621 0c0 0-29.862121-4.38589-39.567157-25.38311l-83.521229-146.929374-0.558725-23.189142 28.694529 0.419556c0 0-1.772366 27.111474 29.024034 27.111474l110.767779 0.88823c8.818853-2.617617 29.021987 4.379751 29.021987 27.990494L314.443575 523.094942C314.443575 523.094942 317.103148 551.974689 287.194978 551.974689L287.194978 551.974689zM257.284761 244.629789c47.12632 0 85.292572-36.862559 85.292572-83.709517 0-46.891983-38.167275-84.871993-85.292572-84.871993-47.078225 0-84.127026 37.98001-84.127026 84.871993C173.158758 207.76723 210.206536 244.629789 257.284761 244.629789L257.284761 244.629789zM848.180646 244.022968c46.145993 0 83.521229-37.185924 83.521229-83.101673 0-45.911656-37.375236-83.098603-83.521229-83.098603-46.145993 0-83.520205 37.186947-83.520205 83.098603C764.66044 206.837044 802.034653 244.022968 848.180646 244.022968L848.180646 244.022968z"  horiz-adv-x="1024" />

    
    <glyph glyph-name="tuichudenglu" unicode="&#59374;" d="M512.071-128c-265.073 0-479.99 214.917-479.99 479.99 0 197.912 119.891 367.959 291.081 441.265 24.721 10.574 44.869-2.715 44.869-29.58v0c0-11.718-8.716-25.007-19.577-29.581-231.207-99.168-355.097-400.967-144.182-682.901 1.573-2.001 4.43-4.859 6.431-6.431 342.238-257.358 717.341-18.862 717.341 307.231 0 171.618-104.171 318.516-252.498 382.105-10.719 4.572-19.434 17.863-19.434 29.581v0c0 26.864 20.291 40.296 44.871 29.58 171.047-73.308 290.937-243.355 290.937-441.268 0-265.073-214.774-479.99-479.848-479.99M527.933 327.27h-32.009c-8.86 0-16.003 7.143-16.003 16.004l0 520.431c-0.001 17.72 14.575 32.295 32.294 32.295h1.429c21.006 0 30.295-23.434 30.295-32.295v-520.288c0-9.003-7.146-16.148-16.005-16.148z"  horiz-adv-x="1024" />

    
    <glyph glyph-name="geren-copy" unicode="&#58880;" d="M512-149.333c282.309 0 512 229.693 512 512s-229.691 512-512 512-512-229.693-512-512c0-282.307 229.691-512 512-512v0zM512 810.667c247.044 0 448.002-200.956 448.002-448 0-247.038-200.958-448.002-448.002-448.002s-448 200.964-448 448.002c0 247.044 200.956 448 448 448v0zM512 674.671c102.048 0 184.801-82.053 184.801-183.302 0-101.218-82.717-183.265-184.801-183.265-102.078 0-184.769 82.053-184.769 183.265 0 101.249 82.723 183.302 184.769 183.302v0zM512 360.492c72.901 0 132.002 58.62 132.002 130.914 0 72.319-59.101 130.908-132.002 130.908s-132.002-58.622-132.002-130.908c0-72.325 59.101-130.914 132.002-130.914v0zM512 360.492c145.826 0 264.004-117.217 264.004-261.829h-52.806c0 115.649-94.556 209.441-211.198 209.441s-211.202-93.79-211.202-209.441h-52.799c0 144.611 118.176 261.829 264.002 261.829v0zM512 360.492z"  horiz-adv-x="1024" />

    
    <glyph glyph-name="combinedshapefuben" unicode="&#58977;" d="M254.0544 858.112c-7.5776 7.5776-18.944 3.7888-26.5216-3.7888-3.7888-7.5776-3.7888-18.944 3.7888-26.5216l534.7328-447.488L231.3216-71.0656c-7.5776-7.5776-7.5776-18.944-3.7888-26.5216 7.5776-7.5776 18.944-7.5776 26.5216-3.7888l553.6768 466.5344c7.5776 7.5776 11.3664 18.944 3.7888 26.5216"  horiz-adv-x="1024" />

    
    <glyph glyph-name="dingdan1" unicode="&#58935;" d="M790.818 765.133l-50.67 0c-14.02 0-30.2-8.625-30.2-22.64s16.18-28.03 30.2-28.03l50.67 0c30.18 0 50.67-20.485 50.67-50.67l0-583.261c0-30.19-20.49-50.67-50.67-50.67L245.289 29.862c-30.187 0-63.61 20.48-63.61 50.67L181.679 663.793c0 30.185 20.485 50.67 50.67 50.67l63.61 0c14.012 0 19.405 14.015 19.405 28.03s-5.39 22.64-19.405 22.64l-63.61 0c-71.155 0-101.34-44.202-101.34-102.42l0-576.791c0-62.53 37.735-106.73 106.73-106.73l547.679 0c69 0 106.74 36.66 106.74 106.73L892.158 662.713C892.158 720.93 856.578 765.133 790.818 765.133zM295.962 536.573c0-14.012 11.86-25.872 25.872-25.872l380.574 0c14.02 0 25.88 11.86 25.88 25.872 0 14.015-11.86 25.875-25.88 25.875L321.834 562.448C307.822 562.448 295.962 550.588 295.962 536.573zM701.328 422.296 321.834 422.296c-14.012 0-25.872-11.86-25.872-25.872 0-14.015 11.86-25.882 25.872-25.882l380.574 0c14.02 0 25.88 11.867 25.88 25.882C727.208 411.511 715.338 422.296 701.328 422.296zM701.328 270.282 321.834 270.282c-14.012 0-25.872-11.86-25.872-25.88 0-14.01 11.86-25.87 25.872-25.87l380.574 0c14.02 0 25.88 11.86 25.88 25.87C727.208 259.502 715.338 270.282 701.328 270.282zM424.254 701.526l176.815 0c20.48 0 37.73 20.482 37.73 44.202 0 23.717-17.25 44.202-38.81 44.202L424.254 789.93c-21.56 0-38.81-20.485-38.81-44.202C385.444 722.008 402.694 701.526 424.254 701.526z"  horiz-adv-x="1024" />

    
    <glyph glyph-name="pinpai1" unicode="&#58961;" d="M511.946242-127.970561C229.665717-127.970561 0.01472 101.706036 0.01472 384.01472s229.650998 511.98528 511.931522 511.98528c282.339403 0 512.039039-229.675317 512.039039-511.98528S794.285644-127.970561 511.946242-127.970561zM511.946242 857.601104C250.838868 857.601104 38.413616 645.151532 38.413616 384.01472s212.425253-473.586384 473.532626-473.586384C773.112493-89.571665 985.586384 122.879187 985.586384 384.01472S773.112493 857.601104 511.946242 857.601104zM398.517183 370.841338l0-255.31554-49.322102 0L349.195081 652.268127l176.980512 0c52.223779 1.904585 93.791863-7.751457 124.755453-29.012926 36.719584-23.210853 55.125455-60.927528 55.125455-113.150027 0-65.03749-35.12219-111.217283-91.957676-132.200999l134.023667-262.375817-60.17491 0-126.703557 255.31554L398.517183 370.843898zM398.517183 414.360087l104.447557 0c102.496893-3.898768 152.771288 28.015835 150.867983 95.743807 0 65.73251-45.469413 97.647113-136.36216 95.743807-5.802073 0-9.700841 0-11.604146 0l-107.347954 0L398.518463 414.360087z"  horiz-adv-x="1024" />

    
    <glyph glyph-name="liaotian" unicode="&#58917;" d="M485.734375 819.140625c-235.21875 0-425.578125-165.59375-425.578125-369.859375 0-125.328125 72.734375-236.765625 182.609375-304.828125l0-114.53125c0-15.46875 10.828125-24.75 23.21875-24.75 4.640625 0 9.296875 1.53125 12.375 3.09375l116.0625 77.375c29.421875-6.1875 58.8125-7.75 89.765625-7.75 235.21875 0 425.5625 165.59375 425.5625 369.859375C911.315625 653.546875 720.971875 819.140625 485.734375 819.140625zM485.734375 139.79375c-26.3125 0-52.625 3.09375-78.921875 7.75l-12.390625 3.09375c-7.734375 1.53125-15.46875 0-23.21875-4.65625l-10.8125-7.71875-55.71875-37.15625 0 43.34375 0 17c0 10.84375-6.1875 21.6875-15.46875 26.3125l-15.484375 9.28125c-95.953125 57.28125-153.203125 151.65625-153.203125 250.703125 0 170.21875 162.5 307.9375 363.671875 307.9375 201.1875 0 363.65625-137.71875 363.65625-307.9375C849.409375 279.075 685.378125 139.79375 485.734375 139.79375zM244.3125 438.46875c0-28.21875 22.859375-51.078125 51.078125-51.078125 28.203125 0 51.0625 22.859375 51.0625 51.078125 0 28.171875-22.859375 51.046875-51.0625 51.046875C267.171875 489.515625 244.3125 466.640625 244.3125 438.46875zM437.765625 438.46875c0-28.21875 22.859375-51.078125 51.0625-51.078125s51.078125 22.859375 51.078125 51.078125c0 28.171875-22.875 51.046875-51.078125 51.046875S437.765625 466.640625 437.765625 438.46875zM625 438.46875c0-28.21875 22.875-51.078125 51.0625-51.078125 28.21875 0 51.09375 22.859375 51.09375 51.078125 0 28.171875-22.875 51.046875-51.09375 51.046875C647.875 489.515625 625 466.640625 625 438.46875zM918.128 358.512c-0.912 1.152-1.872 2.256-2.816 3.408-6.656-25.28-16.16-49.632-28.128-72.752 0.496-1.12 1.12-2.192 1.6-3.312 8.096-18.624 12.496-38.752 12.496-59.744 0-55.664-32.16-108.688-86.064-140.848l-8.688-5.216c-5.216-2.592-8.72-8.688-8.72-14.784l0-9.568 0-24.336-31.28 20.88-6.096 4.336c-4.336 2.592-8.688 3.472-13.024 2.592l-6.944-1.712c-14.816-2.656-29.6-4.336-44.336-4.336-35.44 0-68.816 7.84-97.936 21.504-28.912-6.752-58.912-11.008-89.808-12.464 48.4-41.712 115.008-67.504 188.592-67.504 19.504 0 38 0.976 56.496 4.848l73.056-48.688c1.936-0.976 4.848-1.936 7.744-1.936 7.808 0 14.624 5.84 14.624 15.568l0 72.096c69.152 42.848 114.944 112.976 114.944 191.84C963.84 276.576 946.992 321.36 918.128 358.512z"  horiz-adv-x="1024" />

    
    <glyph glyph-name="kefu" unicode="&#58932;" d="M389.519458 313.059298c-30.085202 0-54.416354-24.352641-54.416354-54.359049 0-30.086226 24.330128-54.441936 54.416354-54.441936 23.034623 0 42.512233 14.437827 50.367131 34.632775l-39.510876 19.810185 39.510876 19.699668C432.032714 298.707428 412.55408 313.059298 389.519458 313.059298L389.519458 313.059298zM643.209344 204.035232c22.978341 0 42.515303 14.408151 50.364061 34.685987l-39.565111 19.72832 39.565111 19.759019c-7.849782 20.247136-27.38572 34.633798-50.364061 34.633798-30.088272 0-54.4184-24.357757-54.4184-54.392818C588.790944 228.391966 613.118002 204.035232 643.209344 204.035232L643.209344 204.035232zM889.345184 331.8472c0.206708 8.553817 0.231267 17.248849 0.057305 25.971511 2.326998 117.957529-32.779567 217.391169-101.535511 287.574624-32.796964 33.466206-72.677253 59.157331-118.382201 76.653821C662.388149 785.763316 593.192184 835.930903 509.139859 835.930903c-84.052325 0-153.24829-50.166563-160.344918-113.883747-45.702901-17.496489-85.581144-43.188638-118.372991-76.654844-68.77641-70.184479-103.890138-169.424714-101.55393-287.025109-0.202615-11.111059-0.134053-21.544689 0.209778-31.745005-17.820877-17.934464-31.781844-45.029566-21.579481-83.044368 7.580652-28.248368 28.479635-49.41341 54.125735-58.676377 13.030781-8.040117 28.339442-12.717649 44.717458-12.824073 32.692586-142.950759 151.384849-240.008282 306.381969-240.008282 154.712641 0 273.429463 97.29493 305.941947 240.334717 1.001817-0.218988 2.038426-0.341784 3.105734-0.341784 20.419052 0 39.196721 7.128351 54.010101 19.004843 19.36914 10.986215 34.513048 29.371958 40.72247 52.509934C927.750889 285.488359 909.631206 314.125583 889.345184 331.8472zM509.139859 806.89152c62.61099 0 115.169019-31.789007 128.593773-74.27975-39.074947 11.147898-81.779561 16.864086-127.487579 16.864086l-2.221598 0c-45.704948 0-88.406492-5.716188-127.47837-16.863063C393.971863 775.102512 446.529893 806.89152 509.139859 806.89152zM513.280156-38.900729c-0.236384 0.00921-0.87902 0.00921-1.115404 0.00921-168.273495 0-285.803281 120.327506-285.803281 292.883537l-0.312108 16.419971c-0.210801 7.0383 0.881067 26.802436 2.053776 45.75816C319.838446 348.620211 357.927949 441.866942 359.592868 446.059428c2.958378 7.439436-0.662079 15.862269-8.101515 18.84009-7.468089 2.987031-15.880689-0.651846-18.868743-8.082072-0.370437-0.911766-35.933397-87.300298-117.450992-114.372887-2.347464 1.630127-18.520819 18.191314-40.285518 12.440333 0.01535 1.166569 0.028653 2.324952 0.050142 3.518127-2.145873 105.457844 28.41619 193.551204 88.386026 254.750031 57.861826 59.043744 142.475945 90.257653 244.682745 90.257653l1.068332-0.01842 0 0 0.26913-17.024745 1.172709 0.01842-0.26913 17.025769c102.234429 0 186.857758-31.213909 244.710374-90.257653 59.969836-61.198827 90.531899-149.292188 88.376817-255.326153 0.016373-0.825808 0.026606-1.63422 0.039909-2.451842-30.691 0-35.956933-27.236318-35.678594-28.359908-0.124843-0.554632-0.2415-1.113357-0.340761-1.678222-0.750083-4.234441-1.599428-15.413038-2.445702-29.446659-0.518816-0.421602-0.998747-0.887206-1.454118-1.379417-44.283576 43.678802-102.051257 55.92266-158.13253 67.805292-29.351492 6.219655-59.69559 12.648065-88.301092 23.491017C455.43675 424.345893 399.380036 516.352377 398.822334 517.278469c-4.111644 6.872524-13.016455 9.112542-19.908422 5.010107-6.872524-4.111644-9.121751-13.016455-5.019317-19.898189 2.457981-4.121877 61.529355-101.516068 172.820044-143.733589 30.703279-11.646248 62.162782-18.310018 92.582605-24.747637 61.028958-12.93152 118.673843-25.14468 157.950382-76.125795 0.413416-0.536212 0.86367-1.02433 1.332345-1.485841-0.056282-2.573615-0.056282-2.578732-0.056282-2.578732 0-19.005866-1.434675-37.377282-4.204765-55.027268C743.823879 118.017136 660.052964 65.154161 556.273343 53.76374c-7.736195 10.207479-23.49204 17.245779-41.794895 17.245779-25.956162 0-47.012733-14.047947-47.012733-31.337729 0-17.324574 21.056572-31.342846 47.012733-31.342846 23.263843 0 42.430368 11.316743 46.157249 26.123984 33.479509 3.846608 65.392336 11.846816 95.310739 23.927969 42.738383 17.260106 80.397075 42.401716 111.929232 74.731028 5.045923 5.173836 9.892301 10.525728 14.576997 16.016789C744.873792 34.67908 644.420939-38.892543 513.280156-38.900729z"  horiz-adv-x="1024" />

    
    <glyph glyph-name="xiajiantou" unicode="&#58907;" d="M530.040 264.137c-9.922-12.494-26.158-12.494-36.079 0l-190.379 239.726c-9.922 12.494-4.987 22.715 10.968 22.715h394.901c15.954 0 20.89-10.222 10.968-22.715l-190.379-239.726z"  horiz-adv-x="1024" />

    
    <glyph glyph-name="wo" unicode="&#58991;" d="M510.141164 827.429275c-244.924245 0-443.479417-198.556195-443.479417-443.48965 0-244.934478 198.555172-443.48965 443.479417-443.48965 244.933455 0 443.490673 198.554148 443.490673 443.48965C953.631838 628.868987 755.075643 827.429275 510.141164 827.429275L510.141164 827.429275zM510.141164-19.340231c-222.720547 0-403.270647 180.550099-403.270647 403.27474 0 222.731804 180.550099 403.27781 403.270647 403.27781 222.729757 0.004093 403.282926-180.551122 403.282926-403.27781C913.42409 161.220101 732.871945-19.340231 510.141164-19.340231zM773.354961 54.777837c-0.092098 0.86981-0.183172 1.727341-0.275269 2.597151-0.030699 1.879813-0.245593 3.698229-0.644683 5.455245-12.290931 96.68197-75.479065 177.465854-161.872714 214.628242 49.926086 34.21015 82.684164 91.635023 82.684164 156.717298 0 104.845906-85.002976 189.843766-189.839673 189.843766-104.845906 0-189.848882-84.997859-189.848882-189.843766 0-65.10888 32.789801-122.555244 82.744539-156.750043-85.451184-36.804231-148.190087-116.28954-161.39176-211.602326-0.960885-2.7793-1.49198-5.754051-1.49198-8.868995l0.192382-2.064009c0-0.040932 0-0.071631-0.00921-0.113587l0.021489 0 0.029676-0.325411c0-14.950504 12.120039-27.067472 27.067472-27.067472 14.94948 0 27.067472 12.116969 27.067472 27.067472l-0.030699 0.325411 0.500397 0c12.608156 103.375415 97.990778 184.282097 203.348338 189.943027 3.901867-0.245593 7.845689-0.378623 11.811-0.378623 3.962242 0 7.897877 0.13303 11.799744 0.378623 105.388259-5.66093 190.781114-86.557378 203.388247-189.943027l0.553609 0 0.029676-0.325411c0-14.950504 12.116969-27.067472 27.067472-27.067472 14.938224 0 27.067472 12.116969 27.067472 27.067472l-0.030699 0.325411L773.354961 54.776813 773.354961 54.777837 773.354961 54.777837zM503.356644 298.51914c-74.885548 0-135.591141 60.71378-135.591141 135.597281 0 74.886571 60.705594 135.601374 135.591141 135.601374 74.897827 0 135.594211-60.714803 135.594211-135.601374C638.949832 359.23292 578.245262 298.51914 503.356644 298.51914L503.356644 298.51914z"  horiz-adv-x="1024" />

    
    <glyph glyph-name="duxie" unicode="&#59023;" d="M511.996959 825.180297c-239.768939 0-434.145154-194.377432-434.145154-434.145154 0-239.773804 194.376215-434.15002 434.145154-434.15002 239.773804 0 434.15002 194.376215 434.15002 434.15002C946.146979 630.802865 751.770763 825.180297 511.996959 825.180297L511.996959 825.180297 511.996959 825.180297zM513.490589-5.989419c-218.442143 0-395.527283 177.085139-395.527283 395.530932 0 218.44336 177.085139 395.528499 395.527283 395.528499 218.447009 0 395.530932-177.085139 395.530932-395.528499C909.021521 171.094504 731.936381-5.989419 513.490589-5.989419L513.490589-5.989419 513.490589-5.989419zM752.905581 367.879015c-0.684783 3.552844-1.762435 7.122717-3.156327 10.339859l-0.086358 0.20434-0.096089 0.193393c-3.378912 7.452337-8.053195 14.523969-13.906083 21.017853-6.122909 6.808909-12.008638 11.676585-17.997753 14.903458-3.136866 1.633506-6.288327 2.913065-9.920232 4.04545-4.271684 1.295371-8.523907 2.009346-12.898977 2.203955-0.74195 0.026759-1.238205 0.035273-1.733243 0.035273-4.507648 0-9.062733-0.699379-13.544838-2.089622-5.255679-1.617694-10.315533-4.356826-15.011709-8.118875l-0.2834-0.22745-0.276103-0.235964c-2.309774-1.96191-4.977144-4.413992-7.943727-7.282053-2.669802-2.606554-4.930924-4.763074-6.830802-6.560781l-1.959477-1.868254-0.066897 0.065681-1.429165-1.48025-15.116312-14.347604 0.600858-0.615453-1.213878-1.262531-52.920472-54.578304-19.942634-20.57025-17.96248-18.539011c-5.511105-5.672874-10.127005-10.456625-13.808778-14.374362l-5.925867-6.218998-0.831957-0.875744c-3.42878-3.528518-6.204402-6.974327-8.346326-10.387295-1.762435-2.773189-3.412968-5.900324-4.848215-9.2318-1.379297-2.786568-2.716022-6.282246-4.339797-11.299528-1.387811-4.266819-2.823058-8.988538-4.304524-14.128668-1.408488-4.885921-2.742781-9.60764-4.008961-14.194348-1.623775-5.992764-2.545739-10.181739-3.026182-13.692012-1.679725-11.230199 0.434223-20.927846 6.322384-28.4933 3.528518-4.437102 11.233848-11.514815 25.063303-11.514815 1.718647 0 3.522436 0.104603 5.374878 0.313808l0.495039 0.057167 0.496255 0.083925c2.948338 0.469496 6.695792 1.333077 12.143648 2.795082 4.632928 1.250368 9.56142 2.745214 15.072525 4.566031 5.169321 1.732027 10.127005 3.495678 14.836561 5.277573 5.106073 1.965558 8.989754 3.630688 11.984311 5.119453 3.931117 1.826899 7.712628 4.176812 11.237497 6.99622 2.357211 1.845144 4.522244 3.672043 6.476856 5.475832 1.655399 1.408488 3.656231 3.405671 7.586131 7.430443 3.555277 3.686638 7.926698 8.240506 13.200622 13.743097 4.775237 5.031878 10.292423 10.681642 17.41514 17.86031l0.147174 0.145957 0.142308 0.155688 19.699372 20.544708 52.838979 54.499243 17.079438 17.609749-0.058383 0.057167 0.195826 0.175149c1.496062 1.348889 3.14538 2.925228 4.878623 4.698609 1.047244 1.082517 2.285448 2.317072 3.70245 3.708532 1.710133 1.695537 3.60028 3.580819 5.6972 5.740988l0.362461 0.367326 0.339351 0.379489c3.884897 4.356826 6.824721 9.179499 8.728247 14.339089 1.868254 4.98201 2.830356 10.231607 2.830356 15.512829C754.057428 360.296533 753.671857 364.176565 752.905581 367.879015L752.905581 367.879015M640.25208 256.821314l-19.699372-20.542275c-6.546185-6.598487-12.457456-12.638687-17.713136-18.174118-5.244733-5.478264-9.596693-10.001725-13.040069-13.569165-3.457972-3.545546-5.508672-5.59503-6.164264-6.066959-1.62864-1.543499-3.522436-3.142947-5.659495-4.817808-2.124895-1.699186-4.339797-3.065104-6.641058-4.106266-2.308558-1.168875-5.659495-2.601689-10.086866-4.308173-4.435886-1.671211-9.068814-3.321745-13.906083-4.94552-4.838485-1.601881-9.439789-3.007937-13.79175-4.179244-4.349528-1.170091-7.584915-1.941232-9.729271-2.285448-0.963318-0.113117-1.852442-0.161769-2.672235-0.161769-2.961717 0-5.02458 0.721272-6.183725 2.179629-1.472953 1.893796-1.881633 5.006336-1.22969 9.392353 0.324755 2.374239 1.110492 5.803019 2.330452 10.307019 1.244286 4.494269 2.545739 9.117467 3.940847 13.936491 1.395109 4.84335 2.742781 9.28775 4.05883 13.335633 1.316048 4.063695 2.379104 6.859994 3.206196 8.381599 0.97913 2.362076 2.089622 4.524677 3.327827 6.464693 1.218744 1.943665 2.992125 4.098968 5.284871 6.464693 0.991293 1.036297 3.29377 3.436078 6.902564 7.241915 3.60028 3.833812 8.115226 8.51296 13.538757 14.092178l17.96248 18.532929 19.937769 20.572683 52.919255 54.583169 46.041017-47.732906L640.25208 256.821314 640.25208 256.821314M728.620718 349.754766c-0.818577-2.208821-2.126111-4.314255-3.940847-6.345494-1.959477-2.023941-3.730426-3.78516-5.294601-5.33474-1.544715-1.515523-2.898469-2.876575-4.056397-4.062478-1.307534-1.339158-2.545739-2.536008-3.682989-3.550412l-46.041017 47.471399c1.97164 1.868254 4.320336 4.102617 7.015681 6.737146 2.708724 2.624799 4.969846 4.688879 6.776068 6.225079 2.290313 1.835413 4.679148 3.166057 7.132447 3.926252 2.225849 0.690865 4.426155 1.032648 6.577809 1.032648 0.226234 0 0.4549 0 0.684783-0.008514 2.371806-0.104603 4.679148-0.469496 6.887969-1.139683 2.219767-0.693297 4.142755-1.452275 5.781126-2.304909 3.457972-1.862172 7.277188-5.104857 11.460081-9.753597 4.192624-4.656038 7.413415-9.523714 9.723189-14.610327 0.661673-1.531335 1.189552-3.301068 1.583637-5.335956 0.417195-2.028807 0.622751-4.135457 0.622751-6.347927C729.852841 354.162677 729.452674 351.966019 728.620718 349.754766L728.620718 349.754766M728.620718 349.754766 728.620718 349.754766zM437.742394 175.90623l-102.246745 0c-17.565962 0-31.858832 14.741688-31.858832 32.859856L303.636817 559.173099c0 18.115735 14.294086 32.846476 31.858832 32.846476l339.733884 0c17.56353 0 31.846669-14.731958 31.846669-32.846476l0-89.190863c0-9.192878 7.229752-16.643999 16.13923-16.643999 8.91191 0 16.140446 7.451121 16.140446 16.643999l0 89.187214c0 36.46865-28.770618 66.139339-64.125128 66.139339L335.494433 625.308789c-35.363024 0-64.13121-29.671905-64.13121-66.139339l0-350.40458c0-36.472299 28.768186-66.149069 64.13121-66.149069l102.246745 0c8.91191 0 16.13923 7.45477 16.13923 16.646431C453.881623 168.455109 446.654304 175.90623 437.742394 175.90623L437.742394 175.90623M437.742394 175.90623 437.742394 175.90623zM633.429792 516.682493c0 9.191662-7.229752 16.643999-16.13923 16.643999L387.328739 533.326492c-8.91191 0-16.13923-7.451121-16.13923-16.643999 0-9.195311 7.227319-16.646431 16.13923-16.646431l229.961824 0C626.20004 500.036062 633.429792 507.487182 633.429792 516.682493L633.429792 516.682493M633.429792 516.682493 633.429792 516.682493zM387.328739 445.500329c-8.91191 0-16.13923-7.451121-16.13923-16.64035 0-9.194094 7.227319-16.646431 16.13923-16.646431l158.678706 0c8.914343 0 16.13923 7.451121 16.13923 16.646431 0 9.189229-7.224887 16.64035-16.13923 16.64035L387.328739 445.500329 387.328739 445.500329M387.328739 445.500329 387.328739 445.500329zM477.425754 351.615722l-90.097015 0c-8.91191 0-16.13923-7.451121-16.13923-16.64035 0-9.195311 7.227319-16.646431 16.13923-16.646431l90.097015 0c8.910694 0 16.136797 7.451121 16.136797 16.646431C493.562551 344.164601 486.336448 351.615722 477.425754 351.615722L477.425754 351.615722M477.425754 351.615722 477.425754 351.615722z"  horiz-adv-x="1024" />

    
    <glyph glyph-name="01" unicode="&#58979;" d="M512 896C225.28 896 0 667.306667 0 384s228.693333-512 512-512 512 228.693333 512 512S795.306667 896 512 896m324.266667-375.466667s-310.613333-331.093333-351.573334-368.64c-27.306667-27.306667-64.853333-17.066667-78.506666-3.413333l-221.866667 204.8c-20.48 20.48-20.48 58.026667 0 78.506667 20.48 20.48 54.613333 20.48 75.093333 0l184.32-167.253334 320.853334 334.506667c20.48 23.893333 51.2 23.893333 71.68 0 20.48-20.48 20.48-54.613333 0-78.506667m0 0"  horiz-adv-x="1024" />

    
    <glyph glyph-name="youhuiquan" unicode="&#58962;" d="M617.5744 418.542933H545.109333l78.609067 75.997867c3.413333 3.328 3.413333 8.789333 0 12.117333l-12.288 12.1344a8.874667 8.874667 0 0 1-12.322133 0l-87.1936-84.309333-87.227734 84.3264a8.7552 8.7552 0 0 1-12.1856 0l-12.219733-12.032a8.413867 8.413867 0 0 1 0-12.014933l78.865067-76.219734h-72.6528c-5.290667 0-9.5744-3.908267-9.5744-8.635733v-17.288533c0-4.7616 4.283733-8.635733 9.5744-8.635734h86.340266v-34.542933h-86.340266c-5.290667 0-9.5744-3.857067-9.5744-8.635733v-17.2544c0-4.7616 4.283733-8.635733 9.5744-8.635734h86.340266v-60.433066c0-4.744533 4.283733-8.635733 9.591467-8.635734h19.2c5.307733 0 9.5744 3.8912 9.5744 8.635734v60.433066h86.3744c5.2736 0 9.591467 3.874133 9.591467 8.635734V340.821333c0 4.778667-4.317867 8.635733-9.591467 8.635734h-86.3744V384h86.3744c5.2736 0 9.591467 3.874133 9.591467 8.635733v17.288534c-0.017067 4.727467-4.334933 8.618667-9.591467 8.618666zM824.2176 896H199.867733C89.480533 896-0.034133 806.570667-0.034133 696.2176v-624.4352c0-110.353067 89.514667-199.765333 199.901866-199.765333h624.349867c110.4384 0 199.901867 89.412267 199.901867 199.765333V696.2176C1024.119467 806.570667 934.656 896 824.2176 896z m33.143467-408.4224c0-14.830933-0.546133-23.381333-19.217067-34.5088-42.888533-20.6848-57.5488-36.744533-57.5488-69.0688s15.650133-49.629867 57.5488-69.0688c14.3872-9.6768 19.217067-15.6672 19.217067-34.525867v-103.5776c0-28.6208-25.8048-51.797333-57.5488-51.797333H224.273067c-31.7952 0-57.565867 23.176533-57.565867 51.797333V280.405333c0 9.540267 3.498667 25.1392 20.309333 34.594134 23.893333 7.287467 56.4224 22.408533 56.4224 69.000533 0 35.8912-31.3344 58.0608-57.5488 69.0688-18.005333 8.738133-19.2 19.0464-19.2 34.5088V591.189333c0 28.6208 25.770667 51.780267 57.565867 51.780267h575.522133c31.761067 0 57.565867-23.159467 57.565867-51.780267 0.017067 0.017067 0.017067-83.438933 0.017067-103.611733z"  horiz-adv-x="1024" />

    
    <glyph glyph-name="zhanghuguanli" unicode="&#58927;" d="M958.144106 79.414957c0-78.526471-63.212694-142.190443-141.178393-142.190443H207.033263c-77.964676 0-141.178393 63.663972-141.178393 142.190443V693.745576c0 78.526471 63.212694 142.190443 141.178393 142.190443h609.93245c77.964676 0 141.178393-63.663972 141.178393-142.190443v-614.330619zM616.181781 247.747803h-55.06513v40.445154c45.058219 15.32094 82.115206 55.159274 101.555977 107.455337 9.522887 2.208295 17.328667 9.44614 19.370163 19.208481l5.513574 26.377764c2.058892 9.881045-2.362814 19.540032-10.471493 25.021883 0.232291 4.399193 0.39295 8.823969 0.39295 13.282515 0 64.377216-24.399713 114.582665-62.189388 145.053653l45.307906 12.413728c-13.659091 4.015454-27.192316 6.180769-40.152489 6.802939l11.868305 3.247974a172.494633 172.494633 0 0 1-39.777958 6.786567l22.35924 6.120394c-35.9467 10.55438-71.301929 8.833179-96.184643-2.404769-86.429465-0.647753-156.299789-69.064982-156.299788-178.02151 0-4.372587 0.152473-8.695033 0.375553-13.018501-8.448416-5.405103-13.121855-15.294334-11.008728-25.405623l5.513574-26.369578c2.086521-9.983375 10.204409-17.349133 20.032242-19.370163 19.387559-51.936883 56.175417-91.555206 100.910271-106.978476v-40.648792h-55.06513c-73.5399 0-133.142369-56.780191-133.14237-126.817314v-53.156664h459.291545v53.156664c0 70.039169-59.612703 126.818337-133.134183 126.818337z"  horiz-adv-x="1024" />

    
    <glyph glyph-name="dizhi" unicode="&#58912;" d="M684.43136 111.40096H340.13696a10.5984 10.5984 0 0 1-10.62912-10.62912v-22.52288a10.5984 10.5984 0 0 1 10.62912-10.62912h344.2944c5.888 0 10.62912 4.736 10.62912 10.62912v22.52288a10.60352 10.60352 0 0 1-10.62912 10.62912zM512.2816 744.99584c-124.66176 0-225.6384-95.08352-225.6384-212.46976 0-117.38112 215.81824-375.25504 225.6384-375.25504 21.8368 0 225.6384 257.87392 225.6384 375.1424 0 117.38112-100.97664 212.5824-225.6384 212.5824z m2.30912-525.57312c-57.6512 67.93728-182.89152 239.73376-182.89152 313.09824 0.11776 92.20096 81.10592 167.296 180.5824 167.296 99.47648 0 180.46976-75.09504 180.46976-167.296 0-77.056-121.66144-249.20064-178.16064-313.09824zM512.62976 661.69344c-73.71264 0-133.67296-58.69056-133.67296-130.89792s59.96032-130.89792 133.67296-130.89792c73.70752 0 133.66784 58.69056 133.66784 130.89792s-59.9552 130.89792-133.66784 130.89792z m0-216.6272c-48.8704 0-88.4992 38.35904-88.4992 85.72928s39.6288 85.72416 88.4992 85.72416 88.4992-38.35392 88.4992-85.72416-39.6288-85.72928-88.4992-85.72928zM512.256 870.144c-269.312 0.512-486.912-217.088-486.912-485.888s217.6-486.4 486.4-486.4c266.24 0 481.792 212.99712 486.4 478.208h0.512v7.68c0 268.8-217.6 486.4-486.4 486.4z m430.592-485.888c0-119.296-48.128-226.816-126.464-305.152-78.336-77.824-185.856-126.464-305.15712-126.464-119.296 0-226.816 48.12288-305.152 126.464-78.336 78.336-126.464 185.856-126.464 305.152s48.128 226.816 126.464 305.15712c78.848 77.81888 186.368 125.95712 305.664 125.95712 119.296 0 226.816-48.128 305.152-126.464 75.78624-76.28288 123.904-180.736 126.464-296.96l-0.50688-7.69024z"  horiz-adv-x="1024" />

    
    <glyph glyph-name="shoucang" unicode="&#58902;" d="M240.211169-106.463232c-14.788608 0-29.55264 4.691968-42.364928 13.979648-25.243648 18.311168-35.721216 49.461248-26.671104 79.300608l76.158976 251.787264c3.096576 10.192896-0.548864 21.383168-9.048064 27.838464l-209.59232 158.887936c-24.838144 18.814976-34.674688 50.128896-25.053184 79.80032 9.621504 29.650944 36.007936 49.248256 67.180544 49.891328l262.955008 5.357568c10.668032 0.190464 20.19328 7.120896 23.69536 17.170432L443.845857 826.001408c10.215424 29.458432 36.982784 48.461824 68.155392 48.461824 31.195136 0 57.939968-19.003392 68.155392-48.461824l86.3744-248.451072c3.500032-10.049536 13.02528-16.979968 23.69536-17.170432l262.979584-5.357568c31.172608-0.643072 57.534464-20.242432 67.155968-49.891328 9.621504-29.671424-0.190464-60.985344-25.053184-79.80032l-209.588224-158.887936c-8.501248-6.453248-12.120064-17.645568-9.048064-27.838464l76.181504-251.764736c9.025536-29.861888-1.452032-61.011968-26.671104-79.323136-25.2416-18.313216-58.058752-18.622464-83.634176-0.811008L526.646497 56.901632c-8.763392 6.119424-20.55168 6.096896-29.292544 0l-215.875584-150.2208c-12.5952-8.763392-26.9312-13.121536-41.2672-13.144064"  horiz-adv-x="1024" />

    
    <glyph glyph-name="jinlingyingcaiwangtubiao96" unicode="&#58626;" d="M541.901 773.018c-6.707 3.123-14.72 2.099-20.48-2.688l-249.19-209.715h-198.298c-10.598 0-19.2-8.602-19.2-19.2v-329.062c0-10.598 8.602-19.2 19.2-19.2h198.298l249.19-209.715c3.558-2.944 7.936-4.506 12.365-4.506 2.739 0 5.53 0.589 8.090 1.792 6.784 3.149 11.11 9.933 11.11 17.408v757.478c0.026 7.475-4.301 14.259-11.085 17.408zM677.53 152.192c-5.274 0-10.547 2.176-14.336 6.426-7.066 7.936-6.374 20.045 1.562 27.11 54.477 48.538 85.709 118.195 85.709 191.13 0 75.648-33.203 146.995-91.085 195.789-8.090 6.835-9.139 18.944-2.304 27.059 6.835 8.115 18.944 9.139 27.059 2.304 66.56-56.090 104.73-138.163 104.73-225.152 0-83.84-35.917-163.968-98.56-219.776-3.635-3.302-8.218-4.89-12.774-4.89zM783.334 61.85c-6.554 0-12.928 3.354-16.538 9.37-5.427 9.114-2.432 20.89 6.682 26.317 98.048 58.342 158.976 165.376 158.976 279.296 0 114.586-61.389 221.901-160.282 280.064-9.114 5.376-12.186 17.152-6.81 26.291 5.35 9.114 17.075 12.211 26.291 6.81 110.515-65.050 179.174-185.062 179.174-313.165 0-127.411-68.096-247.066-177.715-312.294-3.046-1.818-6.451-2.688-9.779-2.688z"  horiz-adv-x="1024" />

    
    <glyph glyph-name="shoucang1" unicode="&#58997;" d="M728.86 854.541c-90.38 0-161.479-44.999-216.74-119.221C456.802 809.542 385.821 854.541 295.401 854.541 132.502 854.541 0.002 710.682 0.002 533.842c0-105.521 47.5-179.56 85.58-238.92 110.88-172.72 376.721-359.3 388.399-368.42 11.42-8.72 24.779-13.04 37.96-13.04 13.3 0 26.578 4.399 37.938 13.04 11.88 9.12 277.601 195.7 388.461 368.42 38.1 59.44 85.659 133.4 85.659 238.92 0.182 176.839-132.438 320.699-295.139 320.699z m168.18-517.939c-121.899-197.82-384.979-367.421-384.979-367.421s-263.5 169.8-382.58 365.62c-38.479 63.24-75.72 121.46-75.72 203.281 0 141.22 105.46 255.779 235.56 255.779 96.241 0 165.101-62.659 201.84-152.32v0.461h0.062c2.699-9.301 10.699-16.141 20.14-16.141 9.479 0 17.419 6.84 20.119 16.141h0.28c36.72 89.46 105.56 151.939 201.56 151.939 130.161 0 235.642-114.561 235.642-255.779 0.116-81.841-31.984-139.282-71.924-201.56z"  horiz-adv-x="1024" />

    
    <glyph glyph-name="sousuokuang" unicode="&#58918;" d="M729.446 117.205c-76.521-65.77-176.807-105.815-286.445-105.815-0.229 0-0.458 0-0.687 0.001-244.266-0-442.304 198.038-442.304 442.316 0 244.255 198.038 442.293 442.34 442.293s442.34-198.038 442.34-442.293c0-0.194 0-0.425 0-0.655 0-109.653-40.063-209.948-106.35-287.048l235.296-234.225c13.66-13.66 13.777-35.698 0.047-49.428-6.306-6.357-15.045-10.292-24.703-10.292-9.681 0-18.438 3.954-24.745 10.336l-234.81 234.81zM442.348 81.227c205.718 0 372.503 166.762 372.503 372.479s-166.785 372.456-372.503 372.456c-205.718 0-372.503-166.762-372.503-372.456 0-205.718 166.785-372.479 372.503-372.479z"  horiz-adv-x="1024" />

    
    <glyph glyph-name="gouwucheman" unicode="&#58625;" d="M346.112 89.088q19.456 0 36.864-7.168t30.208-19.968 20.48-30.208 7.68-36.864-7.68-36.864-20.48-30.208-30.208-20.48-36.864-7.68q-20.48 0-37.888 7.68t-30.208 20.48-20.48 30.208-7.68 36.864 7.68 36.864 20.48 30.208 30.208 19.968 37.888 7.168zM772.096 87.040q19.456 0 37.376-7.168t30.72-19.968 20.48-30.208 7.68-36.864-7.68-36.864-20.48-30.208-30.72-20.48-37.376-7.68-36.864 7.68-30.208 20.48-20.48 30.208-7.68 36.864 7.68 36.864 20.48 30.208 30.208 19.968 36.864 7.168zM944.128 668.672q28.672 0 44.544-7.68t22.528-18.944 6.144-24.064-3.584-22.016-13.312-37.888-22.016-62.976-23.552-68.096-18.944-53.248q-13.312-40.96-33.28-56.832t-49.664-15.872h-537.6l14.336-92.16h517.12q49.152 0 49.152-41.984 0-20.48-9.728-35.328t-38.4-14.848h-536.576q-20.48 0-34.304 9.216t-23.040 24.064-14.848 32.256-8.704 32.768q-1.024 6.144-5.632 29.696t-11.264 58.88-14.848 78.848-16.384 87.552q-19.456 103.424-44.032 230.4h-76.8q-15.36 0-25.6 7.68t-16.896 18.432-9.216 23.040-2.56 22.528q0 20.48 13.824 33.792t37.376 13.312h103.424q20.48 0 32.768-6.144t19.456-15.36 10.24-19.456 5.12-17.408q2.048-8.192 4.096-23.040t4.096-30.208q3.072-18.432 6.144-38.912h700.416zM867.328 701.44h-374.784l135.168 135.168q23.552 23.552 51.712 24.064t51.712-23.040z"  horiz-adv-x="1024" />

    
    <glyph glyph-name="jindou-" unicode="&#58889;" d="M581.12-11.776a508.928 508.928 0 0 0-233.984 59.392A460.8 460.8 0 0 0 138.24 656.896l3.584 6.656a221.184 221.184 0 0 0 102.4 99.328 237.568 237.568 0 0 0 291.84-102.4c6.144-12.288 13.312-23.552 19.968-34.816a188.928 188.928 0 0 1 59.392-66.048 85.504 85.504 0 0 1 51.2-16.384 269.312 269.312 0 0 0 133.12-28.672 251.904 251.904 0 0 0 95.744-345.6 301.056 301.056 0 0 0-123.392-131.072 389.12 389.12 0 0 0-194.56-51.2M269.824 710.656a163.328 163.328 0 0 1-76.8-73.216l-3.072-6.144a404.48 404.48 0 0 1 184.32-532.48 394.24 394.24 0 0 1 372.736-11.264 246.272 246.272 0 0 1 102.4 107.52 194.56 194.56 0 0 1-71.168 267.776A215.04 215.04 0 0 1 671.232 486.4a140.288 140.288 0 0 0-80.896 24.064A246.272 246.272 0 0 0 512 593.408c-7.168 11.264-14.336 24.064-20.992 36.864a180.736 180.736 0 0 1-221.184 80.384M668.672 332.8a250.368 250.368 0 0 0-249.856 177.664 21.504 21.504 0 0 0 41.984 10.752 204.8 204.8 0 0 1 224.256-143.872 21.504 21.504 0 0 0 0-43.52h-18.944"  horiz-adv-x="1024" />

    
    <glyph glyph-name="shouhou" unicode="&#58908;" d="M877.986909 405.317818c-6.283636-11.147636-20.549818-15.127273-31.697454-8.843636l-114.618182 64.651636a23.342545 23.342545 0 0 0-8.843637 31.697455c6.283636 11.147636 20.549818 15.127273 31.697455 8.843636l114.618182-64.651636c11.170909-6.283636 15.127273-20.549818 8.843636-31.697455zM846.498909 396.008727c11.403636-5.794909 25.483636-1.210182 31.278546 10.216728l59.601454 117.317818a23.319273 23.319273 0 0 1-10.216727 31.278545 23.365818 23.365818 0 0 1-31.301818-10.216727l-59.601455-117.317818c-5.748364-11.403636-1.163636-25.483636 10.24-31.278546zM332.637091 430.196364h272.314182v-23.272728H332.637091zM332.567273 347.578182h272.360727v-23.272727H332.567273zM457.076364 463.941818h23.272727v-264.192h-23.272727zM470.039273-25.204364h-0.349091a406.621091 406.621091 0 0 0-289.256727 120.087273c-77.218909 77.358545-119.691636 180.154182-119.598546 289.466182s42.752 212.014545 120.110546 289.256727a406.481455 406.481455 0 0 0 289.093818 119.621818h0.372363c207.918545-0.186182 382.557091-155.857455 406.178909-362.123636a23.272727 23.272727 0 0 0-46.219636-5.282909c-20.945455 182.784-175.732364 320.721455-360.005818 320.884364h-0.325818A360.261818 360.261818 0 0 1 213.829818 640.698182c-68.561455-68.445091-106.356364-159.488-106.449454-256.372364s37.562182-187.973818 106.007272-256.535273a360.424727 360.424727 0 0 1 256.349091-106.426181h0.302546c99.281455 0 191.953455 39.330909 260.910545 110.778181a23.272727 23.272727 0 0 0 33.489455-32.325818 405.76 405.76 0 0 0-294.4-125.021091zM560.453818 517.608727l-75.031273-65.675636a11.682909 11.682909 0 0 0-16.430545 1.093818 11.682909 11.682909 0 0 0 1.093818 16.430546l75.031273 65.675636a11.682909 11.682909 0 0 0 16.430545-1.093818 11.706182 11.706182 0 0 0-1.093818-16.430546zM376.994909 517.608727l75.031273-65.675636c4.817455-4.212364 12.194909-3.723636 16.430545 1.093818a11.682909 11.682909 0 0 1-1.093818 16.430546l-75.031273 65.675636a11.682909 11.682909 0 0 1-16.430545-1.093818 11.682909 11.682909 0 0 1 1.093818-16.430546z"  horiz-adv-x="1024" />

    
    <glyph glyph-name="xiugaimima" unicode="&#58627;" d="M834.561 478.101h-8.594v111.405c0 168.992-140.857 306.495-313.966 306.495-173.111 0-313.968-137.502-313.968-306.495v-111.405h-8.599c-51.95 0-94.206-41.585-94.206-92.684v-420.734c0-51.1 42.256-92.683 94.206-92.683h645.127c51.955 0 94.212 41.583 94.212 92.683v420.734c0 51.1-42.256 92.684-94.212 92.684v0zM272.911 589.505c0 127.68 107.26 231.552 239.090 231.552 131.829 0 239.088-103.868 239.088-231.552v-111.405h-478.178l-0 111.405zM853.89-35.317c0-9.785-8.655-17.747-19.329-17.747h-645.127c-10.669 0-19.328 7.961-19.328 17.747v420.734c0 9.787 8.659 17.747 19.328 17.747h645.127c10.669 0 19.329-7.96 19.329-17.747l-0-420.734zM512.001 345.297c-58.296 0-105.673-47.443-105.673-105.732 0-45.069 28.444-83.347 68.233-98.526v-69.495c0-20.7 16.766-37.472 37.44-37.472 20.672 0 37.438 16.771 37.438 37.472v69.495c39.79 15.179 68.233 53.452 68.233 98.526-0 58.29-47.382 105.732-105.671 105.732v0zM512.001 270.354c16.949 0 30.789-13.807 30.789-30.789 0-16.95-13.84-30.763-30.789-30.763-16.95 0-30.796 13.813-30.796 30.763 0 16.982 13.846 30.789 30.796 30.789v0zM512.001 270.354z"  horiz-adv-x="1024" />

    
    <glyph glyph-name="shanchu" unicode="&#58884;" d="M512 384m-356.864 0a356.864 356.864 0 1 1 713.728 0 356.864 356.864 0 1 1-713.728 0ZM676.864 257.024L549.888 384l126.976 126.976c10.24 10.24 10.24 27.136 0 37.888-10.24 10.24-27.136 10.24-37.888 0L512 421.888 385.024 548.864c-10.24 10.24-27.136 10.24-37.888 0-10.24-10.24-10.24-27.136 0-37.888L474.112 384l-126.976-126.976c-10.24-10.24-10.24-27.136 0-37.888 10.24-10.24 27.136-10.24 37.888 0l126.976 126.976 126.976-126.976c10.24-10.24 27.136-10.24 37.888 0 10.24 10.24 10.24 27.136 0 37.888z"  horiz-adv-x="1024" />

    
    <glyph glyph-name="gouwuche2" unicode="&#58916;" d="M802.3 94.5c-40.6 0-73.5-32.9-73.5-73.5s32.9-73.5 73.5-73.5 73.5 32.9 73.5 73.5-32.9 73.5-73.5 73.5z m0-110.2c-20.3 0-36.7 16.4-36.7 36.7s16.4 36.7 36.7 36.7c20.3 0 36.7-16.4 36.7-36.7s-16.4-36.7-36.7-36.7zM416.6 94.5c-40.6 0-73.5-32.9-73.5-73.5s32.9-73.5 73.5-73.5 73.5 32.9 73.5 73.5-32.9 73.5-73.5 73.5z m0-110.2c-20.3 0-36.7 16.4-36.7 36.7s16.4 36.7 36.7 36.7 36.7-16.4 36.7-36.7-16.4-36.7-36.7-36.7z m490.7 309.9s41.9 240 41.9 241.1c0 40.6-32.9 73.5-73.5 73.5H258.8l-11 57.7c-9.1 30.3-36.8 52.5-70.1 52.5h-55.1c-10.1 0-18.4-8.2-18.4-18.4s8.2-18.4 18.4-18.4h55.1c17.6 0 32.3-12.4 35.9-28.9l80.8-458.5c0.3-2.6 2.1-10.2 2.1-10.2 8.3-29 33.8-51 64.8-53.4h514.3c10.1 0 18.4 8.2 18.4 18.4s-8.2 18.4-18.4 18.4H367c-16.7 0-30.6 11.2-35.1 26.5l-8.3 47h513.6c33.3 0 61.2 22.3 70.1 52.7z m-590.2-16l-51.8 293.9h610.5c20.3 0 36.7-16.4 36.7-36.7 0-6.7-40.4-231.3-40.4-231.3-4.7-15-18.4-25.9-34.9-25.9H317.1z"  horiz-adv-x="1024" />

    
    <glyph glyph-name="touxiangnvhai" unicode="&#59104;" d="M512.058286 896C229.535905 896 0.470454 666.93455 0.470454 384.412168c0-173.98899 86.896657-327.673505 219.631385-420.099041 0.562047 1.96092 1.190707 3.880207 1.790224 5.811984 0.378861 1.215687 0.732743 2.443864 1.124094 3.651225 1.336423 4.134169 2.743623 8.226705 4.250742 12.256792 0.079103 0.216492 0.174859 0.428821 0.253962 0.64115 1.432179 3.805268 2.947625 7.560575 4.529684 11.278413 0.487108 1.140748 0.999195 2.264842 1.498793 3.397263a275.132502 275.132502 0 0 0 10.025256 20.462681c0.507924 0.936745 0.995032 1.881817 1.511282 2.810236a275.752836 275.752836 0 0 0 13.31011 21.532651c0.636987 0.932582 1.298953 1.844347 1.944267 2.768603a291.356931 291.356931 0 0 0 7.785394 10.558161c0.999195 1.290627 1.994227 2.57709 3.014239 3.8469l0.179022 341.141821h0.066613c-0.07494 2.435538-0.183186 4.858586-0.183186 7.31494 0 10.208442 0.707763 20.246188 1.940104 30.121566 0.137389 1.182381 0.295595 2.352272 0.449638 3.530489 0.241472 1.736101 0.491271 3.468039 0.770212 5.195814 6.652973 43.310939 25.113101 82.208767 51.554298 114.003984 44.176908 53.735874 111.156279 88.016588 186.145863 88.016588 102.200994 6.961058 249.71548-89.336358 241.218159-248.183381-0.03747-0.020817-0.079103-0.041633-0.11241-0.066613l0.170696-341.312517c1.090788-1.35724 2.144106-2.73946 3.205751-4.117516 0.503761-0.645313 0.999195-1.303117 1.494629-1.952593a279.037689 279.037689 0 0 0 6.615503-9.113491c0.287269-0.416331 0.587027-0.824336 0.874296-1.240667a276.831134 276.831134 0 0 0 13.97624-22.627603l0.345555-0.64115a272.613698 272.613698 0 0 0 6.498931-12.59402c1.773571-3.651225 3.476366-7.348246 5.100057-11.091065l0.416332-0.945072a288.400979 288.400979 0 0 0 9.617251-25.737597c0.095756-0.291432 0.183186-0.595354 0.274779-0.890949 0.811846-2.568764 1.640345-5.133364 2.385578-7.743761-0.033306-0.020817-0.066613-0.041633-0.091593-0.066613 132.718074 92.425536 219.598078 246.097561 219.598078 420.074061C1023.646118 666.938713 794.584832 896 512.058286 896zM276.052594 69.274396a266.868327 266.868327 0 0 0 8.355768 9.392433l0.17486 0.179023a271.239805 271.239805 0 0 0 8.47234 8.62222c0.924255 0.907602 1.873491 1.786061 2.810236 2.67701a279.216712 279.216712 0 0 0 9.667212 8.767936c0.278942 0.241472 0.549557 0.491271 0.832662 0.732743v-0.03747c24.259622 20.795746 52.353654 37.586385 83.557681 49.73493 2.052513 0.795193 4.109189 1.586222 6.186682 2.343945 2.031696 0.74107 4.075883 1.465486 6.132559 2.169086 2.081656 0.707763 4.188292 1.386383 6.294929 2.056676 2.04835 0.65364 4.088373 1.311443 6.161702 1.927614 2.531294 0.749396 5.095894 1.440506 7.660495 2.131616 2.997585 0.803519 6.011823 1.573732 9.055204 2.302312 2.660357 0.632823 5.324877 1.26981 8.01854 1.844347 2.006717 0.428821 4.03425 0.807683 6.061783 1.199034a325.695932 325.695932 0 0 0 13.480806 2.343945 331.895104 331.895104 0 0 0 8.268338 1.153237c1.773571 0.228982 3.534652 0.470454 5.320714 0.674457a367.570528 367.570528 0 0 0 13.7764 1.315607h51.691688c4.62544-0.345555 9.205084-0.799356 13.755584-1.315607 1.798551-0.204002 3.572122-0.449638 5.358183-0.67862 2.747786-0.353882 5.478919-0.72858 8.197562-1.140747 2.04835-0.312248 4.084209-0.645313 6.115906-0.990869 2.448028-0.424658 4.879402-0.874296 7.30245-1.34475 2.065003-0.399678 4.134169-0.786866 6.182519-1.228177 2.57709-0.549557 5.116711-1.157401 7.664658-1.765244 3.29318-0.782703 6.553054-1.615365 9.796275-2.493825 2.389741-0.649477 4.787809-1.290627 7.156734-1.990063 2.144106-0.632823 4.254905-1.31977 6.374031-1.994227 2.02337-0.645313 4.042576-1.298953 6.040966-1.977573 2.123289-0.72858 4.229925-1.473813 6.328235-2.235699 1.990063-0.72858 3.955147-1.482139 5.92023-2.248188 30.64198-11.911237 58.286374-28.323014 82.250401-48.598346v0.104082c0.828499-0.699436 1.627855-1.440506 2.448028-2.152432a296.840013 296.840013 0 0 0 9.89203-8.992755c0.736906-0.7036 1.477976-1.39471 2.206556-2.102473a273.979265 273.979265 0 0 0 17.448442-18.684946c0.399678-0.462128 0.782703-0.945072 1.174054-1.415526 1.24483-1.482139 2.493824-2.964278 3.705348-4.471398l-0.170696 341.312517 0.11241 0.066613c8.497321 158.847023-139.021329 255.144439-241.218159 248.183381l-0.104083-0.237309c-71.996162 0.495434-140.665837-33.21907-186.04178-87.775116-26.445361-31.795217-44.901325-70.693045-51.554298-114.003984-0.262289-1.727775-0.541231-3.451386-0.770212-5.195814-0.154043-1.174054-0.312248-2.348108-0.449638-3.530489a237.991592 237.991592 0 0 1-1.353077-37.319933c63.602924-38.348271 131.931208-8.026866 200.846519 105.365111 49.422682-87.541971 216.125875-145.045642 280.103497-105.802259-4.04674-129.487343-110.211207-233.232926-240.676928-233.232926-130.569805 0-236.800885 103.916278-240.681092 233.553501h-0.066613l-0.179023-341.141821c0.932582 1.157401 1.894307 2.289822 2.843543 3.43057 0.67862 0.840989 1.35724 1.690305 2.060839 2.51464zM273.58375 445.446328c0.228982 1.740265 0.507924 3.468039 0.770213 5.195814-0.274779-1.727775-0.528741-3.459713-0.770213-5.195814zM511.954204 652.421243l0.104082 0.237308c-74.993747 0-141.973117-34.276551-186.145862-88.016588 45.375942 54.556046 114.045618 88.274714 186.04178 87.77928zM512.058286 170.925833c130.465722 0 236.630189 103.745583 240.676929 233.232926-63.977622-39.243383-230.680815 18.260288-280.103497 105.802259-68.915311-113.391977-137.243594-143.717545-200.846519-105.365111a237.974939 237.974939 0 0 0 1.353077 37.319932 242.945934 242.945934 0 0 1-1.940104-30.121565c0-2.452191 0.112409-4.879402 0.183186-7.31494 3.876044-129.637223 110.107124-233.553501 240.676928-233.553501zM232.050545-2.043146c0.487108 1.140748 0.999195 2.264842 1.498793 3.397263-0.499597-1.132421-1.011685-2.252352-1.498793-3.397263zM227.262736-13.962709c0.079103 0.216492 0.174859 0.428821 0.253962 0.64115-0.079103-0.216492-0.174859-0.424658-0.253962-0.64115zM234.744208-45.533107zM221.892063-29.870726c0.378861 1.215687 0.732743 2.443864 1.124094 3.651225-0.391351-1.211524-0.745233-2.435538-1.124094-3.651225zM249.644704-54.792314zM785.554607 12.445182zM779.501151 24.04417l0.345555-0.64115c-0.116573 0.208166-0.224819 0.428821-0.345555 0.64115zM237.408728 9.764008zM756.540483 58.974361c0.503761-0.645313 0.999195-1.303117 1.494629-1.952593-0.495434 0.65364-0.990868 1.30728-1.494629 1.952593zM791.449857-0.282064l0.416332-0.945072-0.416332 0.945072zM265.781703 56.426414zM243.570431 21.820961c0.507924 0.936745 0.995032 1.881817 1.511282 2.810236-0.516251-0.928419-1.007522-1.877654-1.511282-2.810236zM258.391823 46.159686c0.636987 0.932582 1.298953 1.844347 1.944267 2.768603-0.649477-0.920092-1.30728-1.836021-1.944267-2.768603zM764.650615 47.908277c0.287269-0.416331 0.587027-0.824336 0.874296-1.240667-0.287269 0.416331-0.587027 0.828499-0.874296 1.240667zM801.479277-26.960571c0.095756-0.291432 0.183186-0.595354 0.274779-0.890948-0.091593 0.295595-0.179022 0.595354-0.274779 0.890948zM738.929671-74.197513l0 0zM265.790029-64.068174zM716.460274 100.807325c-23.964026 20.275332-51.608421 36.687109-82.250401 48.598346 0.786866-0.303922 1.569569-0.61617 2.352272-0.928419v-133.917108h-251.131006V147.56965c1.486303 0.607844 2.989258 1.186544 4.48805 1.773571-31.204027-12.148546-59.298059-28.939185-83.55768-49.73493v-183.701998c62.953447-27.677701 132.522398-43.081957 205.696777-43.081957 81.401085 0 158.339099 19.047154 226.663219 52.874068a509.006578 509.006578 0 0 0-22.265395-10.287545v185.396466zM282.018621-72.619618zM299.417104-80.996203zM467.240228 168.819197c1.773571 0.228982 3.538816 0.470454 5.320713 0.674456-1.786061-0.204002-3.551306-0.445474-5.320713-0.674456zM452.92676 166.687581zM305.53301 98.913018zM422.35972 159.972158zM284.583222 78.845852l-0.17486-0.179023 0.17486 0.179023zM276.052594 69.274396c-0.7036-0.824336-1.38222-1.673652-2.077493-2.510477 0.695273 0.836826 1.373893 1.686142 2.077493 2.510477zM408.533359 155.917092c2.04835 0.65364 4.088373 1.311443 6.161703 1.927613-2.069166-0.61617-4.109189-1.273974-6.161703-1.927613zM439.433464 164.118817c2.002553 0.428821 4.03425 0.803519 6.061783 1.199034-2.027533-0.387188-4.055066-0.770213-6.061783-1.199034zM396.105872 151.691329zM293.055562 87.468072c0.924255 0.907602 1.873491 1.786061 2.810236 2.67701-0.936745-0.890949-1.885981-1.769408-2.810236-2.67701zM578.750388 165.334504c2.065003-0.403841 4.134169-0.786866 6.182519-1.228177-2.04835 0.441311-4.117516 0.832662-6.182519 1.228177zM749.633547 67.567438c-0.395515 0.470454-0.778539 0.953399-1.174054 1.415527 0.395515-0.466291 0.778539-0.945072 1.174054-1.415527zM551.776287 169.493653c1.798551-0.204002 3.572122-0.449638 5.358183-0.67862-1.781898 0.228982-3.559632 0.474618-5.358183 0.67862zM728.800332 89.770384c0.736906-0.7036 1.477976-1.39471 2.206555-2.102473-0.72858 0.707763-1.473813 1.398873-2.206555 2.102473zM565.332032 167.674286zM721.864253 96.169395zM621.965571 153.889558zM592.597565 162.345246zM609.54641 157.861358c2.144106-0.632823 4.254905-1.31977 6.374032-1.994226-2.114963 0.674457-4.229925 1.361403-6.374032 1.994226zM621.965571 153.889558c-1.99839 0.67862-4.017597 1.328097-6.040966 1.977574-2.119126 0.674457-4.234089 1.361403-6.374031 1.994226-2.364761 0.699436-4.766993 1.336423-7.156734 1.990064a330.263086 330.263086 0 0 1-9.796275 2.493824 320.837346 320.837346 0 0 1-7.664658 1.765244c-2.04835 0.437148-4.117516 0.824336-6.182519 1.228178a342.515714 342.515714 0 0 1-13.418356 2.335618c-2.71448 0.416331-5.449776 0.786866-8.197562 1.140747-1.786061 0.228982-3.559632 0.474618-5.358183 0.67862a358.710999 358.710999 0 0 1-13.755584 1.315607h-51.691687a369.252507 369.252507 0 0 1-13.776401-1.315607c-1.781898-0.204002-3.547142-0.445474-5.320714-0.674456a352.66587 352.66587 0 0 1-14.313468-2.127453 355.130551 355.130551 0 0 1-7.435676-1.36973c-2.02337-0.395515-4.055066-0.774376-6.061783-1.199034a374.789712 374.789712 0 0 1-17.073744-4.146659c-2.5646-0.69111-5.129201-1.38222-7.660495-2.131616-2.07333-0.612007-4.113353-1.273974-6.161702-1.927613-2.106636-0.670293-4.213272-1.348913-6.294929-2.056677-2.056676-0.7036-4.100863-1.428016-6.132559-2.169086-2.077493-0.761886-4.134169-1.548752-6.186682-2.343944-1.498792-0.587027-3.001748-1.165727-4.488051-1.773572v-133.009505h251.131006v133.917108l-2.352271 0.928418a304.533815 304.533815 0 0 1-5.920231 2.248189 332.082453 332.082453 0 0 1-6.315745 2.231535z m-109.907285-106.401776a15.225234 15.225234 0 1 0 0 30.454631 15.225234 15.225234 0 0 0 0-30.454631z m0 55.109767a15.225234 15.225234 0 1 0 0 30.454631 15.225234 15.225234 0 0 0 0-30.454631zM306.361509 99.608291v0.03747l-0.832663-0.732743a281.456574 281.456574 0 0 1-9.667211-8.767936c-0.936745-0.890949-1.885981-1.769408-2.810236-2.67701a280.428236 280.428236 0 0 1-8.472341-8.62222l-0.174859-0.179023a266.868327 266.868327 0 0 1-8.355768-9.392433c-0.7036-0.824336-1.38222-1.673652-2.077493-2.510477-0.949235-1.140748-1.906797-2.273169-2.843542-3.430569-1.020012-1.26981-2.015043-2.556274-3.014238-3.846901a284.2793 284.2793 0 0 1-7.785395-10.55816c-0.645313-0.924255-1.30728-1.836021-1.944267-2.768603a275.752836 275.752836 0 0 1-13.310109-21.532652c-0.516251-0.928419-1.007522-1.873491-1.511283-2.810236a290.861497 290.861497 0 0 1-6.161702-12.05279c-1.33226-2.772766-2.61456-5.578839-3.863554-8.409891-0.499597-1.132421-1.011685-2.256515-1.498793-3.397263-1.582059-3.717838-3.101668-7.473146-4.529684-11.278413-0.083266-0.216492-0.174859-0.428821-0.253962-0.64115a295.170525 295.170525 0 0 1-4.250742-12.256792c-0.391351-1.207361-0.745233-2.435538-1.124094-3.651225-0.599517-1.93594-1.228177-3.855227-1.790224-5.811984l1.315606-0.911765c4.392295-3.043381 8.834549-6.024313 13.326763-8.934469 0.466291-0.299758 0.920092-0.612007 1.386383-0.911765 4.450581-2.864359 8.967775-5.624635 13.509949-8.347442a526.500817 526.500817 0 0 1 16.145326-9.27586 538.070662 538.070662 0 0 1 22.52352-11.682255c3.676205-1.790224 7.37739-3.538816 11.103554-5.245773 2.302312-1.053318 4.621277-2.077493 6.944406-3.097505V99.608291zM804.139634-35.59528c-0.749396 2.610397-1.573732 5.174997-2.385578 7.743761-0.091593 0.295595-0.179022 0.599517-0.274779 0.890948a287.601623 287.601623 0 0 1-9.617252 25.737598l-0.416331 0.945072a284.799714 284.799714 0 0 1-5.100058 11.091064l-0.795192 1.636182a278.117597 278.117597 0 0 1-5.703738 10.957838l-0.345555 0.64115a276.831134 276.831134 0 0 1-13.97624 22.627604c-0.287269 0.416331-0.587027 0.824336-0.874296 1.240667a274.603762 274.603762 0 0 1-6.615503 9.113491c-0.495434 0.649477-0.990868 1.303117-1.494629 1.952593-1.061645 1.378056-2.114963 2.760276-3.205751 4.117516-1.211524 1.507119-2.460518 2.989258-3.705348 4.471398-0.395515 0.470454-0.778539 0.953399-1.174054 1.415526a273.071663 273.071663 0 0 1-17.448443 18.684946c-0.72858 0.707763-1.473813 1.398873-2.206555 2.102473a288.026281 288.026281 0 0 1-9.892031 8.992755c-0.820173 0.711926-1.619529 1.452996-2.448027 2.152432v-185.496385a509.006578 509.006578 0 0 1 22.47356 10.387464 512.695273 512.695273 0 0 1 65.11837 38.53562l0.08743 0.058287zM512.058286 117.822783m-15.225233 0a15.225234 15.225234 0 1 1 30.450467 0 15.225234 15.225234 0 1 1-30.450467 0ZM512.058286 62.708853m-15.225233 0a15.225234 15.225234 0 1 1 30.450467 0 15.225234 15.225234 0 1 1-30.450467 0Z"  horiz-adv-x="1024" />

    
    <glyph glyph-name="v4" unicode="&#58934;" d="M986 828.4h-272.5l-372.6-347.4v347.4h-248.2v-99.2h99.3v-744.4zM889.5 435v-280.9h35.3v-97.7h-35.3v-7.1c0-15.4 1.9-26.1 5.6-32.1 3.8-6 10.8-9.9 21.2-11.7v-86.8h-172.1v86.8c10.1 1.8 17.1 5.7 21 11.7s5.8 16.7 5.8 32.1v7.1h-221.9v110.2l185.9 268.4h154.5zM771 154.1v162.8l-110.4-162.8h110.4z"  horiz-adv-x="1024" />

    
    <glyph glyph-name="v3" unicode="&#58936;" d="M899.2 775.9h-254.7l-348.2-324.6v324.6h-231.9v-92.8h92.8v-695.6zM651.1 454.5h329.4v-130h-107.8c-1.5 14.4-5.6 24.1-12.2 29.3-6.6 5.2-20.1 7.8-40.5 7.8h-54.1v-87.2c15.8 5.7 30.5 9.9 44.2 12.5 13.6 2.6 27.5 4 41.5 4 49.5 0 85.6-13 108.3-39 22.7-26 34.1-67.8 34.1-125.5 0-57.3-13.5-99.1-40.4-125.4-26.9-26.3-69.5-39.5-127.8-39.5-33.9 0-65.8 3.8-95.7 11.6s-56.1 18.9-79 33.5v124h114.1v-2.5c0-24.3 4.7-42 14-53.1 9.4-11.1 24.3-16.6 44.7-16.6 19.3 0 33.2 5.8 41.5 17.3 8.4 11.5 12.5 30.9 12.5 58.2 0 25.8-4.2 44.3-12.5 55.6-8.3 11.3-21.7 17-40.2 17-10.8 0-20.1-1.7-28-5.2-7.9-3.5-15.2-9-21.7-16.6h-124.4v269.8z"  horiz-adv-x="1024" />

    
    <glyph glyph-name="v2" unicode="&#58937;" d="M878.7 789.3h-243l-332.2-309.8v309.8h-221.3v-88.5h88.5v-663.8zM602.2 281.7v123.8c19.5 13.1 43.2 23.4 71.1 30.9s56.4 11.2 85.6 11.2c55.4 0 95.8-9.7 121.4-29.2s38.4-50.4 38.4-92.7c0-25.8-4.8-47.5-14.5-65s-30.2-38.2-61.7-62l-105.1-79.9c-12.4-9.5-20.5-17.5-24.4-24.2s-5.8-14.5-5.8-23.6v-3.6h46.9c19.5 0 32.6 2.7 39.5 8.2 6.8 5.4 10.2 17.2 10.2 35.1v14.2h117.3v-146.9h-327.4v107.7c0 22.8 3.6 41.2 10.8 55.4 7.2 14.1 21.2 29 42 44.5l122.4 92.3c12.6 9.3 21.4 17.6 26.6 24.9 5.1 7.4 7.7 15.2 7.7 23.5 0 12.7-3.8 22.6-11.5 29.6s-18.4 10.6-32.3 10.6c-16.4 0-29.1-4.5-38.4-13.5-9.2-8.9-13.8-21.4-13.8-37.3v-33.9h-105z"  horiz-adv-x="1024" />

    
    <glyph glyph-name="v1" unicode="&#58938;" d="M899.7 779.9h-254.7l-348.2-324.6v324.6h-231.8v-92.7h92.7v-695.6zM603.9 269.3v109.7c23.7 13.9 49.9 24.6 78.5 31.9 28.6 7.3 58.1 10.9 88.7 10.9 53 0 93.5-11.4 121.5-34.1 28-22.7 42-55.4 42-98.1 0-29.4-7.1-53.1-21.3-71.1-14.2-18.1-35.9-31-65.1-38.9 30.1-4.2 52.7-16.1 67.7-35.5 15.1-19.4 22.6-46.3 22.6-80.5 0-47.5-14.5-83.4-43.5-107.5-29-24.1-72.1-36.1-129.2-36.1-28.1 0-56.5 3.8-85 11.4-28.6 7.6-56.1 18.6-82.4 33v114.7h114v-3.8c0-19 4.6-33.5 13.9-43.2 9.2-9.9 22.8-14.8 40.9-14.8 16.9 0 29.8 4.9 38.7 14.8 8.9 9.8 13.4 24 13.4 42.6 0 21.3-5.1 36.5-15.3 45.5-10.2 9-28.3 13.4-54.2 13.4h-63v81.8h66.9c21.6 0 38.1 4.8 49.6 14.4s17.3 23.2 17.3 40.7c0 17.3-5 30.7-15.2 40.3-10.1 9.5-24.2 14.3-42.2 14.3-15.6 0-27.6-4.7-35.9-14.1-8.4-9.4-13.1-23.3-14.2-41.7h-109.2z"  horiz-adv-x="1024" />

    
    <glyph glyph-name="shouye" unicode="&#58882;" d="M98.033 415.789c-10.115 0-20.065 4.783-26.285 13.712-10.102 14.501-6.536 34.446 7.966 44.548l414.033 288.425a32.003 32.003 0 0 0 37.505-0.667l384.137-288.424c14.133-10.612 16.987-30.671 6.376-44.804s-30.67-16.988-44.804-6.375L511.335 696.728l-395.04-275.193a31.845 31.845 0 0 0-18.262-5.746zM831.241-31.64H608.515c-17.673 0-32 14.327-32 32V224.035H448.118V0.36c0-17.673-14.327-32-32-32H188.589c-17.673 0-32 14.327-32 32V382.833c0 17.673 14.327 32 32 32s32-14.327 32-32V32.36h163.529V256.035c0 17.673 14.327 32 32 32h192.397c17.673 0 32-14.327 32-32V32.36h158.727V382.833c0 17.673 14.327 32 32 32s32-14.327 32-32V0.36c-0.001-17.672-14.328-32-32.001-32z"  horiz-adv-x="1024" />

    
    <glyph glyph-name="baobaoxinxi" unicode="&#58920;" d="M512 896C229.125 896 0 666.875 0 384s229.125-512 512-512 512 229.125 512 512S794.875 896 512 896z m56.375-352c17.875-19.25 48.625-19.25 67.875 1.25 19.25 19.25 19.25 51.25 0 70.375-9 9-20.5 14.125-33.25 14.125-10.25 0-17.875 7.625-17.875 17.875s7.625 17.875 17.875 17.875c21.75 0 42.25-9 57.625-24.375 33.25-33.25 33.25-88.375 1.25-121.625-32-34.5-84.5-34.5-117.75-1.25-6.375 6.375-6.375 17.875 0 25.625 6.25 6.5 17.75 7.875 24.25 0.125zM399.375 294.375c23-46.125 69.125-76.75 120.375-76.75 48.625 0 92.125 26.875 116.5 70.375 1.25 2.5 2.5 3.875 3.875 6.375 3.875 9 14.125 12.75 23 7.625 9-3.875 11.5-15.375 7.625-24.375-2.5-2.5-3.875-6.375-5.125-9-29.5-53.75-85.75-88.375-147.25-88.375-65.25 0-124.125 38.375-152.375 97.25-3.875 9 0 19.25 10.25 24.375 7.75 5.375 19.25 1.5 23.125-7.5z m-19.25 78.125c0 19.25 16.625 35.875 35.875 35.875 9 0 17.875-3.875 24.375-10.25 6.375-6.375 10.25-15.375 10.25-25.625 0-19.25-16.625-35.875-35.875-35.875s-34.625 16.625-34.625 35.875z m210 1.25c0 19.25 16.625 35.875 35.875 35.875 9 0 17.875-3.875 24.375-10.25s10.25-15.375 10.25-25.625c0-20.5-16.625-37.125-34.5-35.875-20.625 0.125-36 15.375-36 35.875z m213.75-62.75c0-42.25-29.5-78.125-69.125-83.25-44.75-76.75-125.5-124.125-213.75-124.125s-170.25 48.625-215 125.5c-42.25 2.5-75.5 38.375-75.5 83.25 0 30.75 16.625 58.875 41 73C281.75 519.75 390.5 624.75 521.125 622.125c10.25 0 19.25 0 28.125-1.25 9-1.25 16.625-10.25 15.375-20.5s-9-17.875-19.25-16.625c-7.625 1.25-16.625 1.25-24.375 1.25-116.5 0-211.25-94.75-216.375-215v-11.5l-10.25-3.875c-16.625-6.375-28.125-24.375-28.125-43.5 0-26.875 20.5-47.375 46.125-47.375h3.875l11.5 1.25 5.125-10.25c37.125-71.625 110.125-116.5 189.5-116.5 78.125 0 149.75 43.5 188.125 113.875l5.125 9h10.25c24.375 0 44.75 21.75 44.75 47.375 0 16.625-9 33.25-23 41l-9 5.125v10.25c0 47.375-15.375 92.125-41 129.25-6.375 7.625-3.875 19.25 3.875 25.625 7.625 6.375 19.25 3.875 24.375-3.875 28.125-41 44.75-88.375 47.375-139.5 20.375-15.375 33.125-39.75 30.625-65.375z"  horiz-adv-x="1024" />

    
    <glyph glyph-name="yijianfankui" unicode="&#58628;" d="M873.6 620.8c-16 0-25.6-12.8-25.6-25.6v-550.4c0-28.8-22.4-51.2-51.2-51.2h-643.2c-28.8 0-51.2 22.4-51.2 51.2v646.4c0 28.8 22.4 51.2 51.2 51.2h521.6c16 0 25.6 12.8 25.6 25.6 0 12.8-12.8 25.6-25.6 25.6h-521.6c-57.6 0-105.6-48-105.6-102.4v-646.4c0-57.6 48-102.4 105.6-102.4h643.2c57.6 0 105.6 44.8 105.6 102.4v550.4c-3.2 16-12.8 25.6-28.8 25.6zM483.2 534.4h-278.4c-16 0-25.6-12.8-25.6-25.6 0-12.8 12.8-25.6 25.6-25.6h278.4c16 0 25.6 12.8 25.6 25.6 0 16-12.8 25.6-25.6 25.6zM179.2 329.6c0-12.8 12.8-25.6 25.6-25.6h460.8c16 0 25.6 12.8 25.6 25.6 0 12.8-12.8 25.6-25.6 25.6h-460.8c-12.8 0-25.6-12.8-25.6-25.6zM969.6 838.4c-9.6 9.6-25.6 9.6-38.4 0l-326.4-323.2c-9.6-9.6-9.6-25.6 0-35.2s25.6-9.6 38.4 0l326.4 323.2c9.6 9.6 9.6 25.6 0 35.2z"  horiz-adv-x="1024" />

    
    <glyph glyph-name="daifukuan" unicode="&#58931;" d="M759.4 30.2h-557C144.9 30.2 98 77.1 98 134.7V633.3c0 57.6 46.8 104.4 104.4 104.4h557c57.6 0 104.4-46.8 104.4-104.4v-81.9c0-9.9-8-17.9-17.9-17.9-9.9 0-17.9 8-17.9 17.9v81.9c0 37.9-30.8 68.7-68.7 68.7h-557c-37.9 0-68.7-30.8-68.7-68.7v-498.6c0-37.9 30.8-68.7 68.7-68.7h557c37.9 0 68.7 30.8 68.7 68.7v96.9c0 9.9 8 17.9 17.9 17.9 9.9 0 17.9-8 17.9-17.9v-96.9c0.1-57.6-46.8-104.5-104.4-104.5m0 0zM850.7 273H600.4c-41.5 0-75.3 33.8-75.3 75.3V433c0 41.5 33.8 75.3 75.3 75.3h250.3c41.5 0 75.3-33.8 75.3-75.3v-84.7c0-41.6-33.8-75.3-75.3-75.3M600.4 472.4c-21.8 0-39.5-17.7-39.5-39.5v-84.7c0-21.8 17.7-39.5 39.5-39.5h250.3c21.8 0 39.5 17.7 39.5 39.5v84.7c0 21.8-17.7 39.5-39.5 39.5H600.4m0 0zM646.5 356.7c-18.7 0-33.9 15.2-33.9 33.9s15.2 33.9 33.9 33.9 33.9-15.2 33.9-33.9-15.2-33.9-33.9-33.9m0 35.8c-1 0-1.9-0.8-1.9-1.9 0-1 0.8-1.9 1.9-1.9 1 0 1.9 0.8 1.9 1.9 0 1-0.8 1.9-1.9 1.9m0 0z"  horiz-adv-x="1024" />

    
    <glyph glyph-name="v11" unicode="&#58897;" d="M925.1 787.3H667.7l-352-328.1V787.3H81.4v-93.7h93.7v-703.1zM712.8 415.7h142.6v-355c0-20.3 1.8-33.3 5.3-38.9 3.6-5.7 10.1-9.6 19.7-11.7v-82H712.8v82c10 2.2 16.8 6.1 20.5 12 3.7 5.9 5.5 18.8 5.5 38.6V286.20000000000005c0 19.9-1.8 32.7-5.5 38.6-3.7 5.9-10.5 9.8-20.5 12v78.9z"  horiz-adv-x="1024" />

    


  </font>
</defs>
</svg>
